 <svg version="1.0" xmlns="http://www.w3.org/2000/svg"  width="300.000000pt" height="300.000000pt" viewBox="0 0 300.000000 300.000000"  preserveAspectRatio="xMidYMid meet">  <g transform="translate(0.000000,300.000000) scale(0.100000,-0.100000)" fill="#000000" stroke="none"> <path d="M1431 2971 c-8 -5 -29 -7 -48 -4 -18 3 -39 1 -47 -6 -9 -8 -21 -8 -39 -2 -18 7 -30 6 -46 -6 -13 -9 -32 -12 -46 -9 -28 7 -55 -2 -55 -18 0 -7 -14 -10 -38 -8 -26 3 -44 -1 -54 -12 -8 -8 -24 -13 -35 -10 -11 3 -26 -3 -37 -15 -12 -13 -31 -21 -52 -21 -23 0 -37 -6 -44 -20 -7 -13 -21 -20 -40 -20 -17 0 -39 -9 -50 -20 -11 -11 -27 -20 -35 -20 -9 0 -27 -11 -41 -25 -14 -14 -35 -27 -48 -31 -13 -3 -28 -16 -35 -30 -7 -16 -19 -24 -35 -24 -16 0 -27 -7 -31 -21 -4 -11 -22 -27 -40 -35 -19 -7 -36 -23 -40 -34 -3 -11 -11 -20 -16 -20 -16 0 -61 -49 -54 -60 3 -6 0 -10 -8 -10 -18 0 -57 -42 -57 -62 0 -8 -12 -20 -26 -27 -21 -9 -25 -17 -21 -36 2 -15 0 -25 -7 -25 -21 0 -49 -27 -51 -48 -1 -12 -13 -33 -28 -46 -21 -20 -26 -31 -21 -51 4 -18 2 -25 -8 -25 -17 0 -41 -37 -32 -51 3 -6 -4 -21 -16 -34 -16 -17 -21 -32 -18 -50 4 -19 0 -29 -14 -36 -15 -8 -19 -19 -16 -44 3 -24 -1 -36 -15 -45 -16 -9 -18 -19 -13 -51 5 -31 3 -41 -10 -46 -13 -5 -15 -14 -10 -44 4 -23 2 -39 -4 -39 -15 0 -24 -49 -10 -64 9 -12 8 -20 -6 -41 -14 -22 -15 -30 -4 -49 8 -17 9 -29 2 -42 -6 -10 -6 -29 -1 -47 5 -17 4 -37 -1 -48 -14 -25 -13 -35 5 -53 12 -11 13 -20 6 -34 -10 -20 -4 -62 9 -62 4 0 5 -20 2 -45 -3 -35 -1 -46 12 -51 11 -4 13 -11 7 -22 -10 -18 6 -72 21 -72 5 0 7 -12 3 -29 -5 -23 -1 -35 15 -51 13 -13 19 -28 15 -40 -4 -12 2 -27 14 -39 12 -12 21 -32 21 -44 0 -13 9 -32 20 -42 11 -10 20 -27 20 -37 0 -28 18 -58 35 -58 8 0 15 -9 15 -21 0 -28 18 -59 34 -59 7 0 16 -14 20 -30 3 -19 15 -34 31 -42 14 -6 25 -19 25 -28 0 -19 30 -50 48 -50 7 0 12 -8 12 -18 0 -20 29 -52 47 -52 5 0 15 -11 21 -25 8 -16 23 -28 42 -31 19 -4 30 -13 30 -23 0 -22 19 -41 41 -41 9 0 24 -11 33 -25 10 -15 26 -25 41 -25 15 0 26 -7 30 -19 6 -19 40 -38 58 -33 5 2 18 -9 29 -23 11 -14 28 -25 39 -25 11 0 33 -10 49 -21 16 -12 37 -19 48 -17 12 3 23 -2 31 -13 7 -12 23 -19 41 -19 17 0 42 -7 55 -16 13 -8 32 -14 43 -12 10 2 26 -3 36 -11 15 -13 50 -19 136 -25 19 -2 47 -9 62 -16 21 -10 31 -10 42 -1 10 9 20 9 41 -1 20 -9 31 -9 45 0 14 8 26 8 48 0 22 -9 37 -9 54 -1 16 7 30 8 42 1 19 -11 66 -3 66 12 0 5 13 4 32 -2 28 -10 33 -9 50 12 14 18 22 20 30 12 16 -16 43 -15 58 3 7 8 27 15 45 15 18 0 38 7 45 15 7 8 25 15 39 15 15 0 36 7 47 15 10 8 31 15 46 15 16 0 37 9 47 19 12 12 27 17 40 14 13 -3 28 3 43 19 13 14 35 28 50 31 15 4 30 16 33 27 4 12 15 20 29 20 26 0 46 17 46 41 0 12 6 16 19 12 24 -6 58 12 65 35 3 9 16 22 28 27 13 6 27 20 33 32 5 12 18 23 29 25 11 2 26 17 35 35 9 17 24 34 34 37 10 2 23 18 29 34 7 17 22 35 34 41 12 5 26 20 30 33 4 12 20 35 36 50 17 15 28 33 26 39 -2 7 6 22 19 35 13 13 23 33 23 46 0 13 12 34 26 47 14 14 23 30 19 39 -3 8 4 24 16 35 13 13 19 28 16 43 -2 15 3 30 15 41 11 10 18 28 17 43 -2 14 5 40 15 58 10 19 15 40 12 48 -3 8 1 26 10 39 9 14 13 33 9 44 -3 11 1 34 10 51 15 29 15 33 0 49 -14 17 -14 19 1 32 11 9 14 23 10 47 -3 18 0 44 6 58 9 19 8 27 -5 42 -11 12 -13 22 -7 32 13 20 13 67 0 75 -7 4 -6 13 1 26 7 15 6 27 -4 48 -8 16 -12 41 -10 55 4 17 -1 34 -12 46 -12 13 -15 27 -10 48 4 19 1 34 -8 43 -8 8 -14 30 -15 49 0 19 -8 40 -17 46 -9 7 -15 18 -14 26 5 21 -10 68 -21 68 -6 0 -10 11 -10 24 0 14 -4 27 -9 30 -5 3 -20 30 -35 61 -14 30 -30 55 -36 55 -5 0 -10 11 -10 24 0 14 -11 33 -25 44 -14 11 -25 26 -25 34 0 17 -31 48 -48 48 -6 0 -12 12 -14 27 -2 18 -12 32 -29 40 -15 7 -30 24 -33 38 -4 14 -16 27 -29 30 -12 3 -30 19 -39 36 -10 16 -25 32 -35 36 -10 4 -28 20 -41 35 -13 15 -32 28 -42 28 -10 0 -20 9 -23 20 -3 10 -17 22 -33 26 -16 4 -37 18 -47 31 -10 13 -29 23 -42 23 -12 0 -29 9 -36 20 -8 12 -26 22 -41 24 -15 1 -36 10 -47 20 -10 9 -29 18 -42 19 -13 0 -30 10 -38 20 -10 14 -22 18 -44 14 -21 -3 -36 2 -50 16 -13 13 -27 17 -47 13 -19 -3 -33 0 -41 10 -9 11 -23 14 -45 11 -22 -4 -37 -1 -45 9 -6 8 -28 14 -48 15 -67 0 -126 5 -154 13 -17 5 -32 4 -41 -4 -11 -8 -20 -8 -35 -1 -24 13 -41 14 -60 2z m91 -70 c37 -53 39 -81 4 -68 -15 6 -86 105 -86 120 0 5 10 7 22 5 14 -2 37 -24 60 -57z m60 42 c8 -10 28 -40 43 -66 l28 -49 -29 4 c-23 2 -35 14 -61 62 -18 32 -33 60 -33 62 0 12 39 1 52 -13z m-149 -42 c42 -55 46 -71 17 -71 -17 0 -100 94 -100 113 0 4 10 7 23 7 14 -1 35 -17 60 -49z m267 -11 c36 -71 36 -72 8 -68 -17 2 -33 21 -56 66 l-33 62 25 0 c21 0 31 -10 56 -60z m-358 4 c54 -57 56 -64 24 -64 -25 0 -63 34 -104 92 -12 16 -10 18 12 18 17 0 39 -15 68 -46z m413 38 c6 -4 23 -35 38 -70 l27 -63 -22 3 c-16 2 -31 19 -50 58 -15 30 -28 61 -28 68 0 13 19 16 35 4z m-505 -48 c55 -51 58 -59 33 -68 -22 -9 -129 94 -110 106 20 13 26 10 77 -38z m595 28 c9 -6 55 -114 55 -128 0 -10 -38 -3 -47 9 -10 12 -43 104 -43 119 0 10 21 10 35 0z m-675 -53 c27 -23 47 -46 44 -50 -12 -20 -50 -6 -93 33 -57 52 -59 58 -26 58 16 0 45 -16 75 -41z m768 29 c12 -17 45 -129 38 -135 -2 -3 -13 -2 -24 1 -13 5 -25 25 -36 64 -9 32 -16 64 -16 70 0 16 25 15 38 0z m-848 -58 c37 -33 42 -41 30 -50 -8 -5 -18 -10 -21 -10 -11 0 -109 81 -109 91 0 24 58 6 100 -31z m933 25 c9 -8 18 -34 22 -57 3 -24 9 -51 11 -60 4 -13 0 -18 -16 -18 -23 0 -24 2 -44 88 -12 51 -12 62 -1 62 8 0 20 -7 28 -15z m-1023 -47 c55 -36 64 -58 24 -58 -30 0 -127 67 -118 81 10 17 45 9 94 -23z m1099 23 c12 -8 44 -141 36 -149 -2 -2 -13 -1 -24 3 -20 6 -24 19 -36 108 -6 47 -2 54 24 38z m-563 -21 c13 0 26 5 29 10 5 8 12 7 22 -2 9 -7 32 -14 52 -15 115 -9 192 -23 217 -40 12 -7 28 -11 36 -8 8 3 21 -1 28 -10 7 -8 24 -15 38 -15 14 0 33 -7 43 -16 9 -8 27 -16 40 -17 13 0 30 -9 37 -19 7 -10 23 -18 36 -18 13 0 31 -9 41 -20 10 -11 28 -20 39 -20 12 0 25 -9 31 -22 6 -14 20 -24 35 -26 15 -2 30 -12 35 -25 6 -12 19 -23 30 -25 11 -1 28 -16 37 -32 10 -18 25 -30 38 -30 13 0 20 -7 20 -20 0 -12 10 -25 23 -31 12 -5 30 -23 39 -40 9 -16 24 -29 33 -29 8 0 15 -9 15 -19 0 -11 10 -28 23 -38 13 -10 27 -30 30 -45 4 -15 16 -30 28 -33 12 -4 18 -12 15 -21 -3 -7 5 -26 18 -41 26 -32 42 -93 24 -93 -6 0 -53 -20 -104 -44 -87 -41 -94 -43 -108 -27 -9 10 -16 25 -16 33 0 9 -7 21 -15 28 -8 7 -15 19 -15 26 0 8 -9 19 -20 26 -11 7 -20 21 -20 30 0 10 -9 23 -20 30 -11 7 -20 17 -20 23 0 19 -216 215 -238 215 -5 0 -17 9 -27 20 -10 12 -25 18 -32 16 -7 -3 -13 -1 -13 4 0 12 -99 62 -110 55 -4 -3 -13 2 -20 10 -7 8 -21 15 -31 15 -11 0 -27 4 -37 9 -31 16 -102 34 -109 28 -3 -4 -12 -2 -18 3 -7 6 -39 12 -71 15 -32 2 -69 7 -80 11 -12 3 -25 1 -28 -5 -5 -8 -13 -8 -27 -1 -13 7 -25 7 -38 1 -10 -6 -21 -8 -24 -5 -8 8 -170 -17 -184 -28 -7 -5 -17 -7 -22 -3 -6 3 -21 0 -33 -7 -13 -7 -27 -11 -32 -10 -4 2 -19 -4 -32 -13 -13 -8 -33 -15 -44 -15 -11 0 -23 -7 -26 -15 -4 -8 -17 -15 -30 -15 -14 0 -27 -7 -30 -15 -4 -8 -14 -15 -24 -15 -9 0 -25 -9 -35 -20 -10 -11 -22 -20 -26 -20 -14 0 -74 -44 -112 -82 -20 -21 -46 -42 -57 -48 -11 -6 -20 -14 -20 -19 0 -4 -20 -30 -45 -57 -25 -27 -45 -52 -45 -56 0 -5 -9 -17 -20 -28 -12 -12 -18 -24 -16 -29 3 -5 -3 -16 -14 -26 -11 -10 -20 -22 -20 -27 0 -5 -7 -19 -16 -32 l-15 -24 -99 46 c-55 25 -103 42 -106 39 -4 -4 5 -18 19 -33 l26 -25 -29 -27 c-23 -22 -34 -47 -54 -133 -14 -59 -26 -113 -26 -121 0 -19 42 -56 58 -50 7 2 15 -3 18 -12 3 -9 13 -16 21 -16 12 0 14 -7 9 -31 -3 -17 -6 -38 -6 -46 0 -8 -4 -12 -8 -9 -5 3 -27 6 -50 7 -38 3 -42 5 -41 28 0 15 3 20 6 14 2 -8 22 -13 44 -13 32 0 39 4 39 19 0 21 -26 36 -35 21 -4 -6 -16 -10 -29 -10 -31 0 -56 -29 -46 -55 4 -11 4 -33 0 -50 -4 -17 -4 -40 0 -50 4 -11 5 -36 4 -55 -2 -19 -1 -46 2 -59 4 -20 7 -22 14 -10 5 7 7 22 4 32 -8 27 22 67 51 67 28 0 55 -34 55 -70 0 -23 -3 -25 -47 -25 -35 0 -48 -4 -48 -14 0 -8 8 -15 18 -17 29 -4 33 -14 9 -21 -40 -10 -13 -21 29 -12 23 6 43 8 45 6 2 -2 -11 -20 -28 -42 l-32 -38 29 7 c17 4 33 13 37 19 5 8 8 7 12 -3 2 -8 9 -29 14 -47 9 -27 8 -31 -5 -26 -11 4 -14 1 -11 -13 2 -10 11 -18 20 -18 9 1 19 -4 21 -10 4 -9 -10 -11 -51 -8 -32 2 -59 6 -61 9 -3 2 12 17 32 34 50 41 50 62 0 53 -21 -4 -41 -11 -44 -16 -3 -5 -9 -2 -13 7 -3 10 2 27 14 42 23 29 20 40 -6 25 -14 -8 -21 -6 -30 6 -9 12 -10 6 -4 -31 7 -45 26 -81 39 -73 4 3 5 -10 3 -29 -3 -26 0 -34 17 -40 17 -5 18 -10 10 -29 -9 -19 -4 -37 27 -102 20 -43 40 -81 44 -84 4 -3 17 -23 28 -46 13 -25 32 -46 51 -54 17 -7 31 -21 33 -32 4 -29 37 -38 81 -23 43 15 44 12 17 -22 -11 -14 -20 -35 -20 -46 0 -28 28 -57 57 -57 16 0 23 -6 23 -19 0 -22 37 -71 53 -71 7 0 18 -9 25 -20 7 -11 18 -20 26 -20 7 0 25 -9 40 -21 14 -11 26 -17 26 -13 0 4 10 -2 22 -13 24 -20 89 -62 98 -61 5 0 40 -14 99 -40 19 -8 57 -20 85 -27 28 -7 58 -14 66 -16 10 -3 14 2 12 14 -2 10 3 17 13 17 18 0 20 -21 3 -38 -7 -7 -8 -12 -2 -12 11 0 52 42 76 78 15 23 15 22 30 -23 14 -43 14 -45 -3 -45 -11 0 -18 5 -17 11 2 6 -3 14 -9 16 -7 3 -13 -3 -13 -12 0 -9 -4 -13 -10 -10 -5 3 -10 1 -10 -4 0 -6 9 -12 20 -13 11 -1 32 -3 48 -4 109 -11 325 0 368 17 16 7 33 11 39 10 5 -1 15 5 21 14 9 12 17 14 29 8 27 -16 230 62 242 93 3 8 9 11 14 8 9 -5 93 40 117 63 7 7 17 13 22 13 5 0 28 19 52 42 24 24 56 52 71 63 15 11 27 28 27 37 0 11 5 15 15 12 18 -7 115 92 142 146 10 19 24 39 31 43 30 20 55 101 32 109 -6 2 -1 9 11 16 13 9 18 9 14 2 -4 -7 1 -7 14 2 20 12 22 17 25 44 1 6 7 18 14 27 7 8 15 26 18 38 14 65 14 70 4 64 -5 -3 -10 -2 -10 3 0 5 -19 15 -42 22 l-43 13 45 20 45 20 -29 8 c-16 5 -34 6 -39 2 -5 -3 -7 4 -3 16 3 11 8 29 11 40 4 13 12 17 30 13 19 -3 25 0 25 13 0 13 -6 16 -26 12 -19 -3 -24 -1 -20 10 3 8 6 19 6 24 0 6 9 5 21 -2 12 -6 34 -9 50 -7 30 5 33 1 23 -26 -5 -12 -10 -13 -25 -5 -16 8 -19 6 -19 -12 0 -17 4 -20 21 -16 15 4 19 2 15 -10 -3 -8 -6 -20 -6 -26 0 -9 -2 -9 -8 -1 -11 18 -82 25 -82 9 0 -13 52 -31 77 -27 26 5 -1 -37 -28 -43 -35 -8 -39 -29 -4 -23 15 3 25 1 25 -6 0 -27 29 48 36 91 3 27 9 52 12 58 4 5 7 48 7 95 1 47 6 94 12 106 7 12 8 25 2 35 -5 7 -9 31 -9 51 0 50 -16 88 -36 88 -16 0 -16 1 -1 18 18 20 23 91 8 107 -4 6 -14 32 -21 58 -7 26 -21 54 -31 61 -11 8 -17 21 -14 34 2 15 -3 26 -17 33 -20 11 -19 12 13 45 40 40 49 42 49 11 0 -13 9 -32 19 -41 11 -10 17 -24 14 -32 -3 -8 2 -25 11 -39 9 -13 16 -37 16 -53 0 -16 6 -35 14 -41 7 -6 11 -22 8 -36 -2 -14 -1 -33 4 -42 4 -10 9 -31 11 -48 1 -16 5 -52 8 -80 5 -54 5 -61 5 -142 0 -21 -7 -89 -15 -153 -3 -25 -6 -59 -8 -76 -1 -17 -8 -39 -16 -47 -8 -10 -11 -27 -7 -41 4 -15 0 -28 -9 -36 -8 -7 -15 -25 -15 -40 0 -15 -7 -33 -15 -40 -8 -7 -15 -25 -15 -40 0 -15 -9 -35 -20 -45 -11 -10 -20 -26 -20 -37 0 -10 -9 -27 -20 -38 -11 -11 -20 -27 -20 -35 0 -8 -9 -24 -20 -35 -11 -11 -20 -29 -20 -39 0 -11 -9 -23 -20 -26 -13 -4 -23 -18 -27 -36 -3 -16 -12 -29 -19 -29 -7 0 -21 -12 -31 -28 -10 -15 -28 -35 -40 -45 -13 -10 -23 -24 -23 -32 0 -7 -10 -15 -23 -19 -13 -3 -29 -17 -37 -31 -7 -14 -19 -25 -26 -25 -7 0 -21 -10 -31 -23 -10 -12 -31 -28 -46 -34 -15 -7 -30 -20 -33 -28 -4 -8 -15 -15 -25 -15 -10 0 -28 -9 -39 -20 -11 -11 -26 -20 -34 -20 -7 0 -25 -9 -39 -20 -14 -11 -32 -20 -41 -20 -9 0 -24 -8 -34 -17 -9 -10 -30 -19 -46 -20 -17 0 -35 -8 -42 -17 -7 -10 -18 -14 -28 -10 -9 3 -27 -1 -41 -10 -13 -9 -37 -16 -53 -16 -16 0 -32 -3 -36 -7 -4 -5 -22 -9 -39 -10 -18 -2 -52 -5 -77 -8 -25 -3 -65 -7 -90 -8 -25 -1 -50 -6 -57 -10 -6 -4 -14 -3 -17 2 -3 5 -41 9 -83 8 -43 0 -88 5 -100 11 -12 7 -29 9 -38 6 -9 -4 -27 -1 -40 6 -13 7 -33 10 -44 7 -11 -3 -25 1 -32 9 -6 8 -25 14 -41 14 -16 0 -36 7 -44 15 -9 8 -27 15 -40 15 -14 0 -32 7 -40 15 -9 8 -25 15 -37 15 -13 0 -30 9 -40 20 -9 11 -27 20 -39 20 -13 0 -29 9 -36 20 -7 11 -22 20 -33 20 -12 0 -30 11 -41 25 -11 14 -28 25 -38 25 -10 0 -21 9 -25 19 -3 11 -19 24 -35 30 -17 5 -30 17 -30 25 0 8 -13 20 -30 28 -16 7 -30 18 -30 25 0 7 -13 22 -29 34 -16 12 -32 30 -34 41 -3 11 -15 22 -26 25 -12 3 -21 13 -21 23 0 10 -11 27 -25 38 -14 11 -25 27 -25 35 0 9 -11 24 -25 35 -14 11 -25 29 -25 39 0 11 -9 28 -20 38 -11 10 -20 26 -20 35 0 9 -7 25 -15 36 -8 10 -15 26 -15 35 0 9 -8 27 -19 40 -10 13 -16 30 -14 37 3 7 -2 24 -11 37 -9 13 -16 34 -16 45 0 12 -5 31 -12 43 -7 12 -11 32 -9 45 1 13 -2 29 -8 35 -5 7 -10 29 -10 50 -1 20 -1 54 -2 74 0 21 -4 42 -8 48 -9 12 -7 101 3 132 4 13 3 30 -2 40 -7 12 -5 24 5 39 10 16 12 28 5 40 -7 13 -6 24 5 40 8 13 12 32 8 43 -3 12 1 31 10 45 9 14 14 34 11 44 -4 11 0 24 9 32 8 7 15 25 15 40 0 15 7 33 15 40 8 7 15 24 15 38 0 13 7 30 15 36 8 6 16 22 17 36 2 14 12 32 22 41 11 9 20 25 21 35 0 11 11 30 23 42 12 12 22 31 22 42 0 11 7 20 16 20 8 0 21 15 29 33 7 17 23 38 34 45 12 7 21 20 21 30 0 9 10 22 23 27 12 6 26 20 32 32 5 12 19 24 31 27 13 4 26 15 29 27 4 11 20 25 36 31 15 5 31 18 34 29 4 10 15 19 25 19 10 0 27 11 38 25 11 14 27 25 36 25 9 0 25 9 36 20 11 11 27 20 35 20 8 0 24 9 35 20 11 11 31 20 45 20 14 0 30 9 37 20 9 13 19 18 34 14 14 -4 29 1 41 13 10 10 28 17 41 15 13 -2 32 4 41 12 10 9 25 14 35 10 9 -3 27 1 40 9 13 9 33 13 45 10 11 -3 29 -2 38 3 19 8 72 13 140 13 23 0 45 5 48 12 5 8 10 8 18 0 6 -6 21 -11 33 -11z m-617 -38 c51 -31 60 -48 32 -57 -16 -5 -83 27 -130 61 -1 2 0 7 4 13 10 18 47 11 94 -17z m1286 -57 c8 -71 3 -85 -23 -69 -12 8 -18 30 -22 78 -3 37 -3 69 -1 71 2 3 12 0 22 -5 13 -7 19 -28 24 -75z m-1365 15 c33 -17 60 -32 60 -35 0 -2 -9 -9 -20 -15 -27 -14 -155 47 -138 67 16 19 32 16 98 -17z m1428 8 c13 -13 17 -148 4 -148 -22 0 -32 29 -32 92 0 68 5 79 28 56z m-1503 -53 c48 -22 55 -28 45 -40 -17 -20 -29 -19 -94 11 -56 25 -67 38 -43 47 22 10 34 7 92 -18z m1584 -3 c5 -10 7 -46 4 -80 -5 -51 -9 -62 -22 -60 -23 5 -30 158 -7 158 9 0 20 -8 25 -18z m-1656 -48 c61 -19 68 -27 38 -43 -14 -8 -34 -5 -75 9 -31 10 -61 22 -67 25 -12 8 21 36 36 31 6 -2 36 -12 68 -22z m1730 -87 c-3 -37 -9 -67 -14 -67 -17 0 -39 33 -35 53 3 12 8 44 11 71 7 48 7 48 26 30 16 -17 18 -29 12 -87z m-1807 36 c63 -17 73 -27 42 -46 -16 -11 -148 21 -148 35 0 6 29 27 38 28 2 0 33 -8 68 -17z m1872 -95 c-11 -70 -17 -78 -38 -53 -12 14 -9 67 7 133 5 23 6 23 24 5 17 -16 17 -24 7 -85z m-1039 23 c37 -46 24 -66 -15 -24 -37 40 -48 63 -30 63 8 0 28 -18 45 -39z m65 2 c27 -39 25 -64 -2 -39 -10 8 -25 28 -35 45 -27 47 5 41 37 -6z m64 -2 c25 -45 27 -51 10 -51 -7 0 -23 18 -35 40 -27 45 -28 50 -10 50 7 0 23 -17 35 -39z m62 -1 c22 -43 25 -60 10 -60 -5 0 -21 23 -35 50 -20 40 -22 50 -10 50 8 0 24 -18 35 -40z m-1033 -4 c4 -4 0 -13 -9 -22 -13 -13 -22 -14 -77 -1 -72 17 -82 24 -58 42 14 10 29 10 78 0 33 -7 63 -16 66 -19z m777 1 c29 -38 32 -47 14 -47 -12 0 -68 62 -68 74 0 18 33 1 54 -27z m303 21 c5 -7 16 -30 26 -50 15 -33 15 -38 1 -38 -11 0 -54 75 -54 96 0 9 18 3 27 -8z m-370 -30 c35 -34 41 -48 21 -48 -14 0 -78 59 -78 72 0 17 26 7 57 -24z m454 -23 c14 -38 14 -45 2 -45 -14 0 -43 56 -43 84 0 29 25 5 41 -39z m784 25 c7 -23 -14 -128 -28 -137 -5 -3 -14 0 -20 6 -8 8 -8 28 2 73 7 35 15 66 17 70 9 14 23 8 29 -12z m-1298 -16 c18 -14 33 -29 33 -35 0 -18 -26 -8 -64 26 -29 26 -35 35 -21 35 10 0 33 -11 52 -26z m561 9 c17 -32 24 -83 13 -83 -12 0 -23 24 -35 73 -7 30 8 37 22 10z m-621 -29 c24 -18 31 -30 24 -37 -6 -6 -23 1 -50 22 -23 18 -41 35 -41 37 0 13 38 0 67 -22z m681 14 c5 -7 13 -33 17 -57 11 -64 -17 -49 -31 17 -12 51 -7 65 14 40z m-1355 -24 c30 -6 34 -16 12 -34 -11 -9 -30 -9 -85 0 -70 12 -71 12 -54 32 18 19 33 19 127 2z m611 -10 c26 -18 35 -29 28 -36 -7 -7 -23 -1 -51 18 -67 47 -45 64 23 18z m811 -9 c3 -14 7 -36 10 -50 4 -17 1 -25 -9 -25 -17 0 -26 22 -26 66 0 39 17 46 25 9z m-305 1 c19 -2 42 -6 50 -9 15 -5 59 -15 90 -20 8 -1 25 -8 36 -14 12 -7 24 -10 26 -7 3 2 11 -2 18 -11 7 -8 23 -15 36 -15 13 0 24 -4 24 -8 0 -5 18 -16 41 -26 39 -18 162 -109 210 -158 54 -54 120 -142 138 -185 6 -11 15 -24 20 -28 19 -11 13 -45 -9 -45 -11 0 -35 -9 -55 -20 -19 -11 -35 -17 -35 -14 0 4 -6 2 -12 -3 -33 -26 -49 -23 -63 10 -24 52 -40 67 -76 68 -36 0 -183 26 -161 28 17 1 15 21 -3 21 -8 0 -15 -4 -15 -8 0 -16 -26 -8 -27 8 -1 15 11 16 118 12 101 -4 127 -1 160 13 21 10 37 20 34 23 -2 2 1 14 7 25 9 18 5 26 -33 59 -45 40 -63 44 -132 29 -52 -12 -131 -26 -222 -41 -38 -6 -85 -15 -102 -20 -32 -8 -55 3 -31 14 11 5 11 7 0 12 -17 8 -5 24 19 24 11 0 17 5 14 10 -3 6 3 10 13 10 11 0 25 7 32 15 7 8 16 12 21 9 5 -3 9 0 9 7 0 6 8 9 20 6 11 -3 18 -2 15 3 -2 4 13 19 34 33 38 25 61 73 47 95 -15 25 -136 16 -136 -10 0 -4 -7 -8 -15 -8 -8 0 -15 -7 -15 -16 0 -10 -6 -14 -15 -10 -9 3 -15 0 -15 -9 0 -9 -6 -12 -17 -8 -13 5 -15 2 -10 -11 5 -14 3 -17 -8 -12 -9 3 -15 0 -15 -9 0 -8 -3 -15 -7 -15 -5 0 -19 -3 -32 -7 -23 -6 -23 -5 -8 18 8 13 18 39 22 57 4 17 11 32 16 32 12 0 11 62 -2 80 -8 12 -9 9 -5 -11 4 -19 -7 -55 -39 -124 -25 -53 -43 -101 -39 -106 9 -15 34 -10 57 12 12 11 63 53 112 93 83 67 93 73 128 68 40 -5 42 -8 28 -45 -7 -18 -45 -43 -135 -91 l-125 -67 19 -33 20 -33 202 38 c112 21 212 40 222 43 13 3 35 -7 64 -31 l43 -35 -33 -29 -33 -29 -190 1 c-287 1 -275 2 -275 -19 0 -16 20 -21 153 -41 334 -49 293 -38 322 -86 14 -24 25 -46 25 -48 0 -3 -18 -12 -40 -21 l-40 -16 -167 66 c-426 167 -412 163 -496 125 -38 -17 -73 -29 -78 -26 -4 3 -102 -33 -216 -80 l-207 -85 -42 17 -42 17 26 47 26 47 136 21 c74 12 172 27 218 33 76 11 82 14 82 36 l0 23 -231 -2 -230 -2 -29 28 c-41 39 -48 26 -9 -16 l32 -34 106 2 c131 4 280 -6 260 -17 -13 -7 -181 -34 -289 -47 -29 -3 -53 -14 -68 -29 -12 -13 -22 -26 -22 -29 1 -22 -1 -25 -12 -19 -7 4 -8 3 -4 -4 5 -8 -2 -12 -18 -12 -14 0 -26 4 -26 9 0 11 -73 41 -99 41 -24 0 -34 25 -15 40 8 7 14 18 15 24 0 6 20 38 43 71 30 41 51 60 66 61 12 1 35 15 52 31 l29 30 152 -29 c84 -16 186 -35 227 -43 74 -15 75 -15 92 8 10 12 18 24 18 28 0 3 -61 36 -136 75 -110 56 -139 75 -149 99 -16 37 -14 41 27 48 37 5 43 2 193 -123 82 -69 98 -78 114 -68 17 10 15 17 -30 115 -59 125 -58 148 4 161 38 8 170 7 257 -2z m979 -11 c4 -22 -29 -135 -39 -135 -4 0 -13 7 -21 16 -13 16 -10 31 23 117 12 30 31 31 37 2z m-1539 -9 c28 -16 38 -26 29 -31 -12 -8 -99 33 -99 47 0 15 28 8 70 -16z m930 -54 c0 -38 -2 -43 -15 -32 -10 8 -15 30 -15 64 1 47 2 49 15 32 8 -11 15 -40 15 -64z m-686 40 c-4 -18 3 -51 20 -91 14 -35 23 -67 20 -72 -3 -5 0 -9 7 -9 7 0 10 -3 6 -6 -3 -3 -20 -3 -37 1 -21 5 -30 11 -26 21 3 8 -1 14 -9 14 -8 0 -15 5 -15 11 0 5 -4 8 -9 4 -6 -3 -14 3 -20 12 -5 10 -13 18 -18 18 -4 0 -7 3 -5 8 1 4 -8 7 -20 7 -12 0 -18 3 -15 7 4 3 -12 15 -36 25 l-42 20 45 14 c25 8 54 19 65 24 18 8 47 15 82 19 8 1 11 -8 7 -27z m-302 -13 c29 -15 37 -24 30 -31 -13 -13 -104 30 -96 44 8 12 21 10 66 -13z m-533 -5 c2 -2 1 -10 -2 -19 -5 -11 -22 -15 -69 -15 -76 0 -103 13 -74 35 14 11 35 13 80 8 34 -3 63 -7 65 -9z m1569 -44 c3 -47 1 -52 -12 -40 -20 16 -23 104 -3 98 7 -3 13 -27 15 -58z m602 -54 c-25 -69 -30 -75 -50 -51 -13 15 -9 32 22 104 17 41 20 43 35 29 14 -15 14 -22 -7 -82z m-1685 65 c33 -15 37 -20 22 -26 -19 -8 -97 21 -97 37 0 13 32 9 75 -11z m1137 -55 c-9 -65 -30 -42 -24 28 3 40 6 46 18 35 9 -10 11 -27 6 -63z m-1195 22 c38 -16 39 -18 25 -27 -14 -9 -102 19 -102 31 0 12 46 9 77 -4z m148 -20 c7 -23 22 -38 54 -55 24 -13 59 -34 77 -48 18 -14 39 -25 46 -25 19 0 68 -23 68 -32 0 -5 -4 -8 -10 -8 -5 0 -9 -4 -7 -9 1 -5 -1 -10 -6 -11 -10 -2 -122 16 -275 46 -68 13 -127 24 -131 24 -4 0 -26 -16 -49 -36 -23 -19 -42 -31 -42 -26 0 12 99 112 111 112 4 0 12 6 16 13 10 16 114 86 128 87 6 0 15 -14 20 -32z m-625 14 c0 -22 -29 -32 -97 -32 -71 0 -73 1 -63 20 9 17 21 20 85 20 41 0 75 -4 75 -8z m1725 -2 c3 -6 3 -31 -1 -56 -5 -37 -9 -43 -19 -32 -7 8 -10 30 -8 56 5 41 15 53 28 32z m565 -35 c0 -27 -51 -126 -63 -122 -21 7 -19 35 9 97 21 48 29 58 40 49 8 -6 14 -17 14 -24z m-1867 4 c37 -10 51 -29 21 -29 -30 0 -93 23 -88 31 7 12 21 11 67 -2z m1349 -55 c-4 -55 -8 -62 -22 -48 -14 14 -1 106 14 101 7 -2 10 -23 8 -53z m-1822 19 c0 -3 -7 -15 -17 -25 -21 -24 -143 -27 -143 -3 0 7 8 19 18 24 19 11 142 15 142 4z m438 -8 c55 -11 22 -28 -37 -20 -43 6 -50 9 -40 21 7 8 19 12 28 10 9 -2 31 -8 49 -11z m1428 -65 c-5 -27 -13 -50 -17 -50 -14 0 -17 28 -6 73 7 34 14 44 22 37 9 -7 9 -23 1 -60z m514 40 c8 -16 4 -32 -20 -80 -31 -61 -46 -73 -57 -43 -5 14 51 143 63 143 2 0 8 -9 14 -20z m-1961 -26 c1 -1 0 -8 -4 -14 -4 -7 -23 -9 -53 -4 -54 8 -56 9 -47 24 6 9 91 5 104 -6z m1489 -57 c-7 -26 -15 -47 -19 -47 -17 0 -18 20 -3 65 21 61 40 46 22 -18z m-1958 39 c0 -24 -24 -35 -94 -42 -68 -7 -68 -7 -57 14 11 21 27 28 86 35 58 8 65 7 65 -7z m412 -26 c16 0 18 -3 9 -14 -8 -10 -25 -12 -54 -9 -49 7 -51 8 -42 23 5 7 19 10 37 6 17 -3 39 -6 50 -6z m2063 -19 c6 -20 -57 -131 -74 -131 -16 0 -21 31 -9 53 23 43 61 97 69 97 4 0 10 -9 14 -19z m-465 -3 c0 -24 -33 -97 -41 -92 -13 8 -11 27 6 68 15 35 35 49 35 24z m-2050 -32 c0 -22 -21 -33 -85 -44 -66 -11 -74 -9 -59 16 19 30 144 55 144 28z m420 -10 c-10 -8 -30 -11 -57 -9 -58 7 -44 23 20 23 44 0 49 -2 37 -14z m1649 -60 c-15 -35 -24 -45 -32 -37 -8 8 -5 24 12 57 30 64 49 45 20 -20z m481 18 c0 -25 -63 -124 -80 -124 -4 0 -10 9 -13 19 -5 20 67 131 85 131 4 0 8 -12 8 -26z m-2162 -6 c-3 -8 -27 -14 -58 -16 -47 -3 -52 -1 -40 12 16 20 104 23 98 4z m-418 -22 c0 -21 -20 -33 -83 -46 -61 -14 -78 -9 -61 18 19 29 144 54 144 28z m1572 -8 c-11 -11 -105 -1 -98 10 2 4 27 5 56 3 35 -2 49 -6 42 -13z m578 5 c0 -10 -11 -35 -24 -56 -33 -54 -46 -28 -15 29 25 46 39 56 39 27z m-833 -33 c23 -11 49 -20 58 -20 15 0 82 -26 190 -74 28 -13 77 -33 110 -47 l60 -24 -203 -3 -204 -2 -28 30 c-21 22 -37 30 -64 30 -45 0 -84 -18 -91 -42 -6 -17 -21 -18 -222 -18 -119 0 -214 2 -211 5 12 12 328 137 367 146 24 5 49 13 55 18 44 34 114 35 183 1z m-929 8 c-5 -14 -40 -26 -81 -27 -43 -2 -28 23 19 30 63 10 66 10 62 -3z m2222 -35 c-1 -18 -15 -44 -39 -72 -37 -42 -61 -48 -61 -15 0 17 78 114 92 114 4 0 8 -12 8 -27z m-2492 2 c7 -13 14 -14 35 -6 29 11 30 11 21 -13 -3 -9 -17 -16 -30 -16 -13 0 -24 -4 -24 -10 0 -5 9 -10 19 -10 14 0 18 -5 14 -19 -5 -18 -6 -18 -44 1 -22 10 -44 16 -49 13 -13 -8 -13 0 4 40 16 37 39 45 54 20z m2062 0 c0 -18 -41 -85 -52 -85 -14 0 -8 28 13 64 22 38 39 47 39 21z m167 -23 c-41 -42 -48 -67 -17 -58 11 3 29 9 40 12 11 3 20 11 21 17 0 7 4 3 8 -8 6 -14 2 -29 -11 -47 -14 -21 -16 -28 -6 -28 8 0 19 5 25 11 7 7 12 6 16 -5 5 -12 0 -16 -18 -16 -13 0 -35 -4 -49 -10 -31 -11 -32 -7 -8 28 36 51 36 53 5 40 -39 -18 -44 -27 -39 -78 7 -63 21 -97 48 -111 34 -17 33 -17 4 -44 -16 -14 -24 -30 -20 -37 16 -25 2 -292 -16 -310 -1 -2 -3 -24 -5 -49 -1 -26 -6 -53 -11 -60 -5 -8 -9 -17 -9 -20 0 -3 -8 -21 -17 -40 -9 -19 -33 -69 -53 -112 -20 -42 -40 -77 -45 -77 -6 0 -10 -9 -10 -19 0 -11 -16 -36 -35 -57 -20 -20 -38 -47 -41 -60 -3 -12 -16 -25 -29 -28 -12 -3 -25 -15 -28 -26 -7 -26 9 -26 25 0 7 11 17 20 22 20 5 0 6 -3 3 -7 -14 -13 16 -33 49 -33 31 0 33 -2 22 -19 -9 -15 -16 -17 -31 -9 -24 13 -31 5 -18 -21 7 -13 8 -22 1 -26 -6 -4 -13 7 -16 24 -7 35 -28 56 -45 46 -8 -6 -7 -10 2 -16 12 -7 11 -9 -1 -10 -39 -2 -57 -10 -77 -33 -11 -14 -36 -31 -55 -39 -18 -8 -48 -28 -65 -46 -18 -17 -40 -31 -48 -31 -8 0 -15 -5 -15 -11 0 -5 -4 -8 -9 -4 -12 7 -35 -32 -35 -62 -1 -12 -5 -25 -10 -30 -5 -5 -6 -3 -2 4 11 20 -39 39 -67 25 -12 -6 -47 -18 -77 -27 -30 -10 -61 -23 -69 -31 -12 -11 -9 -12 22 -7 78 12 95 -58 19 -82 -12 -3 -22 -3 -21 2 4 22 -2 43 -17 57 -17 18 -99 22 -109 6 -3 -5 -16 -10 -29 -10 -12 0 -28 -6 -34 -12 -8 -8 -15 -9 -20 -3 -11 15 -30 17 -69 6 -31 -9 -36 -8 -40 10 -4 14 -8 17 -13 9 -4 -7 -27 -12 -51 -12 -24 1 -49 -4 -55 -9 -9 -7 -19 -6 -34 3 -20 12 -24 10 -51 -22 -16 -19 -30 -29 -30 -22 -1 7 -3 17 -4 22 -1 6 -3 17 -4 25 -1 16 -66 47 -90 43 -9 -1 -42 12 -73 29 -31 18 -69 35 -85 39 -15 4 -34 11 -40 17 -7 5 -13 6 -13 2 0 -4 -18 9 -40 29 -22 20 -46 36 -53 36 -6 0 -29 18 -51 40 -34 36 -53 45 -79 41 -4 -1 -12 10 -17 23 -11 31 -50 67 -63 59 -6 -4 -8 2 -5 14 6 22 -13 57 -80 146 -24 32 -50 73 -57 91 -8 19 -21 36 -30 39 -8 4 -15 18 -15 32 0 14 -8 44 -18 68 -20 44 -51 133 -56 155 -1 7 -10 22 -20 34 -14 16 -15 22 -6 28 12 8 16 37 10 90 -1 14 -1 67 0 119 1 53 -2 97 -8 103 -7 7 -6 15 3 25 8 7 17 30 20 51 3 20 10 45 16 54 5 10 9 28 9 41 0 12 9 40 20 62 11 22 20 47 20 56 0 18 19 29 51 29 21 0 25 -10 9 -26 -6 -6 -13 -21 -15 -35 -3 -13 -9 -25 -15 -27 -5 -2 -10 -17 -10 -32 0 -16 -5 -32 -11 -35 -5 -4 -9 -17 -8 -28 1 -12 -1 -29 -4 -37 -22 -55 -29 -280 -13 -390 11 -75 20 -111 27 -116 5 -3 9 -18 9 -34 0 -16 4 -32 10 -35 5 -3 10 -17 10 -29 0 -13 7 -29 15 -36 8 -7 15 -21 15 -31 0 -9 7 -24 15 -33 8 -8 15 -21 15 -29 0 -8 7 -20 15 -27 8 -7 15 -18 15 -25 0 -7 7 -19 16 -26 9 -7 19 -21 23 -30 8 -22 75 -102 124 -148 22 -20 49 -46 62 -58 12 -13 27 -23 33 -23 6 0 16 -9 22 -20 6 -11 20 -20 30 -20 11 0 20 -5 20 -11 0 -5 15 -17 33 -25 17 -8 39 -18 47 -23 8 -5 22 -12 30 -15 8 -3 22 -10 30 -14 42 -24 61 -32 79 -32 11 0 23 -4 26 -10 3 -5 19 -10 35 -10 16 0 31 -4 34 -9 8 -12 187 -35 266 -34 112 2 236 18 257 35 7 5 17 7 22 3 6 -3 21 0 33 7 13 7 27 11 32 10 4 -2 19 4 32 13 13 8 30 15 37 15 8 0 20 7 27 15 7 8 23 15 37 15 13 0 26 7 29 15 4 8 12 15 20 15 24 0 193 127 238 178 6 7 21 23 34 34 12 12 22 26 22 32 0 6 9 17 20 24 11 7 20 17 20 24 0 6 7 20 17 30 17 19 32 43 55 88 7 14 18 31 25 38 7 7 13 22 13 32 0 10 5 22 10 25 6 3 10 17 10 29 0 13 7 29 15 36 9 7 15 20 13 29 -1 9 4 26 10 39 7 12 10 27 7 33 -4 5 -2 16 4 23 30 36 33 375 4 446 -3 8 -5 21 -4 29 2 8 -2 24 -7 35 -6 12 -18 47 -27 78 -9 32 -21 60 -26 64 -17 10 -9 24 15 24 28 0 38 -12 56 -67 15 -49 33 -59 19 -11 -6 22 -5 34 2 39 15 9 1 32 -16 25 -7 -2 -16 2 -19 10 -4 11 7 14 56 14 l62 0 -37 -38z m-2377 4 c0 -7 -6 -18 -12 -24 -20 -16 -127 -46 -135 -38 -14 14 14 40 63 57 61 22 84 23 84 5z m384 -16 c-5 -4 -31 -11 -59 -15 -42 -5 -48 -4 -37 7 17 17 96 37 101 25 2 -5 -1 -12 -5 -17z m132 -61 c60 -28 248 -116 418 -195 170 -79 311 -146 314 -149 3 -2 -8 -23 -23 -45 -22 -32 -34 -40 -59 -40 -29 -1 -30 -1 -12 -15 19 -14 18 -17 -23 -75 -24 -34 -41 -63 -38 -66 2 -3 19 18 38 47 18 28 47 69 65 90 26 31 34 36 47 26 8 -7 17 -19 20 -27 4 -10 6 -8 6 6 1 12 8 25 16 28 10 3 15 1 13 -7 -2 -8 12 -33 30 -58 18 -24 69 -93 112 -154 44 -60 86 -117 93 -126 6 -8 17 -22 22 -31 6 -8 25 -34 43 -58 38 -50 39 -61 11 -78 -27 -17 -37 -7 -21 19 10 16 11 24 1 35 -10 13 -14 12 -31 -3 -16 -15 -17 -18 -3 -25 22 -13 18 -27 -12 -39 -19 -7 -28 -7 -34 3 -4 7 -3 16 3 19 15 9 2 39 -16 39 -20 0 -31 -19 -17 -33 23 -23 12 -45 -24 -49 -35 -4 -45 8 -25 28 8 8 6 15 -5 24 -12 10 -18 10 -30 0 -14 -11 -14 -15 -1 -29 9 -10 12 -22 7 -30 -5 -8 -11 -9 -15 -3 -7 11 -24 11 -43 -1 -17 -11 -17 15 -1 31 10 9 9 16 -3 28 -15 14 -18 14 -33 -1 -16 -16 -16 -18 1 -30 23 -17 13 -27 -32 -30 -36 -2 -45 11 -23 33 10 10 9 16 -3 28 -15 14 -18 14 -33 -1 -16 -16 -16 -18 1 -30 14 -11 16 -16 6 -26 -9 -9 -13 -9 -13 -2 0 6 -11 10 -25 8 -29 -3 -44 13 -25 25 17 10 5 40 -15 40 -21 0 -30 -27 -15 -45 17 -21 6 -29 -19 -15 -12 6 -25 8 -30 5 -14 -8 -19 18 -7 38 15 24 -12 43 -33 22 -12 -12 -12 -17 -1 -30 18 -22 8 -28 -26 -15 -37 14 -45 29 -31 52 16 25 -11 45 -31 24 -11 -11 -11 -17 -1 -34 15 -24 5 -42 -13 -24 -14 14 -58 16 -58 4 0 -10 118 -45 210 -63 36 -7 133 -12 215 -12 151 1 163 2 360 58 16 4 29 -8 64 -60 24 -35 53 -73 64 -82 20 -18 20 -17 0 12 -12 17 -48 66 -82 110 -33 44 -113 152 -178 240 -64 88 -152 207 -195 264 -44 57 -78 104 -76 106 5 4 859 395 863 395 3 0 5 -11 5 -24 0 -14 5 -28 10 -31 6 -3 10 -15 10 -26 0 -10 4 -27 10 -37 30 -55 58 -345 36 -380 -4 -7 -5 -21 -1 -31 3 -11 1 -22 -5 -26 -7 -4 -9 -18 -6 -30 3 -13 2 -27 -4 -30 -5 -3 -10 -17 -10 -30 0 -13 -4 -27 -10 -30 -5 -3 -10 -15 -10 -26 0 -19 -3 -26 -33 -85 -9 -17 -14 -33 -11 -36 2 -3 -2 -11 -11 -18 -8 -7 -15 -18 -15 -25 0 -6 -9 -20 -20 -30 -11 -10 -20 -24 -20 -30 0 -7 -7 -15 -15 -19 -8 -3 -15 -12 -15 -19 0 -16 -128 -150 -153 -160 -9 -3 -17 -11 -17 -17 0 -6 -10 -15 -22 -20 -13 -6 -36 -19 -53 -30 -16 -11 -40 -24 -52 -29 -11 -5 -24 -15 -28 -20 -3 -6 -14 -11 -24 -11 -10 0 -24 -6 -31 -14 -6 -8 -17 -13 -24 -10 -8 3 -21 -2 -30 -11 -9 -9 -20 -14 -24 -11 -5 3 -24 0 -43 -6 -59 -19 -63 -20 -89 -24 -14 -2 -36 -4 -49 -4 -12 0 -28 -3 -34 -7 -5 -3 -40 -5 -76 -4 -62 1 -89 4 -166 17 -16 3 -40 6 -52 8 -13 1 -26 6 -30 9 -3 4 -17 7 -29 7 -13 0 -26 5 -29 10 -3 6 -17 10 -29 10 -13 0 -29 7 -36 15 -7 9 -19 14 -26 11 -7 -3 -18 2 -24 10 -7 8 -20 14 -30 14 -10 0 -20 7 -24 15 -3 8 -12 15 -19 15 -8 0 -21 8 -30 18 -14 16 -10 25 57 117 l73 100 -23 195 c-12 107 -25 214 -28 238 l-6 42 39 0 c47 0 44 5 77 -164 13 -72 26 -138 28 -148 2 -9 -12 -38 -31 -65 -37 -51 -56 -83 -50 -83 2 0 25 31 51 69 l47 70 -25 127 c-14 70 -23 131 -20 136 24 38 66 -62 45 -108 -14 -32 -14 -34 2 -28 8 3 14 10 15 17 0 7 3 22 6 35 7 31 -19 89 -46 103 -27 14 -68 56 -68 69 0 18 55 88 81 104 23 13 28 13 55 0 48 -25 80 -61 82 -94 2 -30 -19 -65 -32 -53 -3 4 -6 2 -6 -4 0 -6 -14 -16 -31 -22 -26 -9 -30 -14 -24 -33 8 -25 9 -41 6 -106 0 -24 -4 -41 -8 -39 -5 3 -17 1 -28 -4 -16 -6 -14 -8 13 -8 38 -1 39 -4 11 -42 -11 -16 -18 -29 -15 -29 3 0 19 20 36 45 17 25 27 45 22 45 -15 0 -22 40 -10 65 8 18 7 28 -6 46 -18 26 -21 49 -7 49 5 0 17 -24 26 -52 10 -29 21 -57 26 -63 13 -13 11 -5 -11 60 -24 70 -24 68 -2 61 30 -10 82 60 82 109 0 8 -27 37 -61 65 -62 52 -105 64 -128 36 -6 -7 -25 -16 -42 -20 -28 -5 -30 -8 -24 -35 5 -25 3 -30 -17 -33 -17 -2 -24 -11 -28 -33 l-5 -30 -83 -3 -82 -3 -1 33 -2 33 -4 -30 c-3 -16 -10 -33 -15 -36 -6 -4 -2 -12 11 -19 15 -7 26 -8 34 -2 14 12 100 8 104 -4 3 -9 53 -441 53 -456 0 -4 -6 -8 -14 -8 -16 0 -76 -89 -76 -113 0 -9 -5 -19 -11 -22 -7 -5 -10 75 -9 262 1 294 1 299 -9 263 -7 -27 -31 -34 -39 -11 -3 10 0 12 12 8 9 -4 16 -3 16 2 0 5 -15 12 -34 15 -27 5 -37 13 -45 37 -10 29 -30 36 -38 13 -4 -12 42 -64 56 -64 6 0 21 -11 35 -25 25 -25 26 -27 32 -253 7 -224 3 -302 -16 -302 -10 0 -14 3 -92 73 l-47 43 22 196 c18 170 24 197 39 201 28 8 21 44 -14 76 -25 23 -40 28 -60 24 -21 -4 -28 -2 -28 11 0 9 7 16 16 16 8 0 12 -4 9 -10 -3 -5 -1 -10 4 -10 6 0 11 9 11 20 0 17 -5 19 -25 14 -15 -4 -25 -2 -25 5 0 6 9 11 20 11 11 0 20 5 20 11 0 6 -9 8 -20 4 -17 -6 -20 -2 -20 29 0 40 -1 40 35 26 19 -7 26 -17 25 -33 -3 -34 1 -64 7 -49 2 6 14 12 24 12 12 0 17 4 14 11 -4 6 -13 8 -21 5 -11 -4 -13 1 -8 22 13 53 31 58 37 10 4 -32 4 -32 5 5 l2 37 -65 0 -65 0 0 -40 0 -40 -77 -1 c-43 -1 -68 -4 -55 -7 l22 -7 -26 -40 c-36 -53 -34 -51 -44 -35 -8 13 7 61 70 223 14 35 29 57 38 57 9 0 37 -22 64 -50 42 -43 48 -47 48 -27 0 12 -16 42 -35 66 -33 41 -41 64 -22 62 4 -1 18 -1 31 -1 18 0 26 -6 28 -22 4 -30 28 -36 28 -6 0 30 -17 48 -46 48 -29 0 -54 10 -54 21 0 5 8 9 18 9 25 0 112 32 112 42 0 21 -124 -12 -150 -40 -22 -24 -43 -20 -70 12 -7 9 -19 16 -26 16 -17 0 -19 36 -3 46 6 3 9 15 6 25 -3 10 1 23 9 30 8 6 14 19 14 29 0 14 8 30 15 30 1 0 51 -23 111 -51z m1724 40 c0 -14 -53 -89 -62 -89 -16 0 -7 33 18 66 26 34 44 43 44 23z m430 -30 c0 -26 -90 -123 -103 -110 -15 15 -5 35 43 88 46 52 60 57 60 22z m-2300 12 c0 -6 -6 -13 -12 -18 -18 -11 -98 -31 -98 -24 1 16 19 29 55 39 53 13 55 13 55 3z m-248 -25 c39 -9 52 -38 30 -65 -15 -18 -22 -20 -51 -11 -19 5 -38 7 -42 4 -11 -6 -12 8 -3 31 4 9 9 12 13 7 3 -6 23 -13 44 -17 30 -6 37 -4 37 9 0 19 -46 39 -72 33 -20 -6 -20 -5 -12 17 4 11 10 13 18 8 6 -5 23 -12 38 -16z m-147 4 c10 -16 -30 -47 -84 -65 -90 -30 -81 15 10 52 62 26 66 26 74 13z m1359 -34 l21 -27 218 3 c119 2 217 2 217 1 0 -7 -83 -54 -100 -56 -11 -2 -26 -9 -32 -15 -7 -7 -16 -12 -21 -12 -17 0 -200 -86 -238 -111 -14 -10 -52 -28 -83 -39 l-57 -22 -65 23 c-36 13 -61 25 -55 27 6 2 11 28 11 58 0 52 -1 54 -21 44 -16 -9 -18 -14 -9 -25 7 -9 9 -27 5 -45 -6 -28 -9 -30 -23 -17 -10 7 -64 36 -122 64 -58 28 -136 66 -175 84 l-70 34 214 3 213 2 29 31 c27 29 34 31 75 26 35 -3 52 -12 68 -31z m926 11 c0 -16 -51 -86 -62 -87 -17 0 -6 34 20 65 29 36 42 43 42 22z m-1922 -23 c-3 -16 -87 -49 -97 -38 -9 8 20 29 57 40 20 7 38 12 40 13 2 1 2 -6 0 -15z m2132 -63 c0 -29 -26 -61 -50 -61 -21 0 -46 27 -53 60 -6 23 -3 25 36 27 23 1 43 7 45 13 6 18 22 -10 22 -39z m220 28 c0 -12 -20 -39 -47 -64 -54 -50 -58 -52 -67 -28 -5 11 8 31 41 65 51 52 73 60 73 27z m-2738 -25 c-10 -17 -127 -76 -135 -67 -3 2 -2 13 1 25 3 13 27 31 66 49 61 29 87 27 68 -7z m2328 12 c0 -6 -15 -27 -34 -45 -46 -45 -58 -22 -14 28 32 37 48 43 48 17z m-2214 -18 c-9 -5 -16 -16 -16 -25 0 -13 7 -10 30 12 28 27 32 28 46 13 24 -23 11 -68 -19 -67 l-22 0 23 16 c25 18 29 33 7 33 -8 0 -15 -4 -15 -10 0 -5 -10 -14 -21 -21 -29 -15 -53 8 -44 43 5 20 11 24 27 20 18 -4 18 -6 4 -14z m262 10 c-5 -14 -64 -47 -85 -48 -28 -1 -11 22 30 40 50 23 60 24 55 8z m40 -44 c27 -18 29 -34 4 -34 -21 0 -42 18 -42 37 0 17 11 16 38 -3z m1891 -50 c-36 -37 -49 -42 -49 -20 0 19 74 80 79 65 2 -6 -12 -26 -30 -45z m-1955 16 c-5 -5 -26 -16 -46 -25 -33 -13 -38 -13 -38 -1 0 17 83 58 89 43 2 -5 -1 -13 -5 -17z m2396 8 c0 -32 -98 -117 -111 -97 -13 21 -11 27 19 53 83 73 92 78 92 44z m-2762 -10 c-2 -17 -21 -33 -65 -56 l-63 -33 0 25 c0 19 11 31 53 54 65 37 79 39 75 10z m432 -28 c0 -9 -32 -30 -44 -30 -8 0 -8 45 0 53 8 8 44 -11 44 -23z m1899 -52 c-38 -30 -49 -34 -49 -15 0 6 17 26 37 44 31 25 39 28 42 15 2 -9 -12 -28 -30 -44z m223 27 c0 -19 1 -40 2 -47 1 -6 -5 -13 -13 -16 -9 -3 -11 1 -6 17 6 19 3 20 -27 14 -18 -3 -39 -10 -45 -16 -10 -7 -13 -1 -13 24 0 19 4 29 8 23 8 -13 82 -6 82 7 0 5 -4 9 -10 9 -5 0 -10 5 -10 10 0 6 7 10 15 10 10 0 15 -11 17 -35z m-2192 7 c0 -11 -16 -26 -45 -40 -60 -29 -62 -4 -2 32 51 31 47 30 47 8z m-372 -39 c-2 -21 -16 -35 -61 -61 -60 -36 -77 -36 -61 -2 8 19 99 88 117 89 5 1 7 -11 5 -26z m2782 3 c0 -17 -14 -33 -53 -60 -61 -42 -67 -43 -67 -13 0 15 16 33 53 59 62 44 67 45 67 14z m-2356 -81 c-18 -51 -30 -96 -27 -99 4 -3 2 -6 -3 -6 -5 0 -9 44 -9 98 l0 98 36 1 35 2 -32 -94z m1956 60 c0 -18 -77 -71 -88 -61 -7 8 65 76 81 76 4 0 7 -7 7 -15z m-2010 -5 c0 -10 -69 -60 -82 -60 -19 0 -5 27 25 47 35 23 57 29 57 13z m2200 -62 c0 -29 -4 -38 -17 -38 -13 0 -14 3 -5 12 17 17 15 28 -4 28 -8 0 -12 -4 -9 -10 4 -6 -6 -10 -22 -10 -22 0 -25 2 -13 10 13 8 12 10 -2 10 -21 0 -24 -20 -6 -38 9 -9 8 -12 -5 -12 -13 0 -17 9 -17 43 l0 42 50 0 50 0 0 -37z m-2458 20 c-17 -17 -15 -38 4 -38 14 0 14 3 4 15 -11 13 -8 15 15 15 23 0 26 -2 15 -15 -10 -13 -9 -15 9 -15 23 0 28 19 9 38 -9 9 -8 12 5 12 13 0 17 -9 17 -42 l0 -43 -53 0 -54 0 3 35 c1 19 2 38 3 43 1 4 9 7 18 7 13 0 14 -3 5 -12z m-112 -22 c0 -17 -14 -33 -55 -60 -30 -20 -57 -36 -60 -36 -3 0 -5 11 -5 24 0 17 14 33 52 60 61 42 68 44 68 12z m2780 -1 c0 -19 -13 -33 -56 -60 -56 -36 -82 -36 -68 -2 5 13 108 87 121 87 2 0 3 -11 3 -25z m-2410 6 c0 -9 -73 -71 -84 -71 -19 0 -1 30 31 53 40 28 53 33 53 18z m2008 -6 c-2 -9 -22 -27 -45 -41 -35 -20 -43 -22 -43 -10 0 9 17 27 38 40 44 29 55 31 50 11z m-2008 -58 c0 -19 -77 -79 -85 -67 -4 6 10 26 31 45 41 38 54 43 54 22z m2007 -11 c-5 -13 -76 -56 -92 -56 -19 0 2 25 42 50 48 31 60 32 50 6z m-2377 -14 c0 -21 -12 -37 -55 -70 l-55 -43 0 29 c0 22 11 37 51 70 29 23 53 42 55 42 2 0 4 -12 4 -28z m2535 22 c39 -15 40 -94 1 -94 -20 1 -20 1 -3 15 27 20 18 49 -17 53 -34 4 -49 -14 -34 -41 8 -15 7 -18 -4 -15 -20 7 -22 47 -2 69 18 20 32 23 59 13z m238 -54 c-4 -4 -34 -22 -66 -40 l-59 -33 4 28 c2 23 15 35 63 61 58 32 60 33 63 13 2 -12 0 -25 -5 -29z m-2233 21 c0 -14 -103 -190 -109 -186 -5 2 -11 23 -15 45 -6 37 -3 46 35 94 31 40 48 53 65 52 13 0 24 -3 24 -5z m-192 -66 c-40 -38 -48 -42 -48 -23 0 22 63 79 74 68 8 -8 -1 -21 -26 -45z m226 31 c3 -14 3 -32 -1 -42 -6 -16 -7 -16 -20 2 -10 14 -13 14 -13 3 0 -8 5 -20 11 -26 7 -7 1 -44 -22 -126 -34 -121 -37 -123 -65 -57 -3 8 -10 25 -16 37 -6 11 -9 25 -7 30 12 29 115 203 120 203 4 0 10 -11 13 -24z m1796 -1 c0 -9 -20 -24 -46 -35 -55 -24 -55 -24 -47 -4 4 12 60 45 91 53 1 1 2 -6 2 -14z m-2360 -37 c0 -21 -84 -118 -102 -118 -4 0 -8 10 -8 22 0 21 84 118 102 118 4 0 8 -10 8 -22z m349 -57 c-38 -44 -49 -49 -49 -24 0 24 61 86 74 73 6 -6 -3 -23 -25 -49z m296 23 c13 -32 13 -54 -5 -221 -11 -101 -20 -189 -20 -195 0 -5 -10 2 -22 17 -13 15 -30 35 -40 45 -9 10 -19 27 -23 39 -3 12 -10 21 -15 21 -5 0 -12 15 -15 33 -7 36 56 259 74 265 6 2 11 10 11 18 0 30 40 14 55 -22z m35 0 c0 -13 -4 -24 -9 -24 -13 0 -24 37 -16 50 10 16 25 1 25 -26z m2080 16 c0 -15 -17 -29 -65 -52 -35 -18 -67 -29 -71 -25 -16 16 15 51 66 73 68 29 70 29 70 4z m-410 -9 c0 -13 -21 -27 -59 -40 -62 -20 -50 13 12 36 40 14 47 15 47 4z m-2375 -125 c-27 -30 -52 -53 -57 -50 -20 13 -5 52 39 96 44 45 49 47 57 29 7 -16 -1 -31 -39 -75z m415 77 c-1 -16 -53 -83 -65 -83 -13 0 -2 30 23 63 30 40 42 46 42 20z m1948 -15 c-5 -15 -40 -33 -82 -44 -46 -11 -27 18 25 37 56 21 62 22 57 7z m410 -15 c-4 -21 -129 -85 -141 -73 -17 16 13 47 65 68 66 26 80 27 76 5z m-2338 -34 c0 -5 -13 -28 -30 -50 -23 -32 -31 -38 -36 -26 -3 10 6 33 23 56 26 36 43 44 43 20z m-372 -32 c2 -10 -18 -42 -44 -73 -45 -52 -49 -55 -58 -35 -7 17 -1 31 34 76 42 55 62 64 68 32z m2276 9 c-5 -14 -92 -41 -101 -32 -10 10 9 26 40 35 48 14 67 13 61 -3z m-1884 -31 c0 -9 -12 -34 -27 -58 -24 -36 -28 -39 -31 -20 -2 12 7 38 20 57 25 38 38 45 38 21z m2300 9 c0 -22 -28 -45 -72 -59 -29 -9 -59 -19 -65 -21 -8 -4 -13 2 -13 14 0 26 15 37 75 55 56 17 75 20 75 11z m-442 -36 c-5 -16 -92 -39 -97 -26 -5 14 5 20 46 28 55 11 55 11 51 -2z m173 2 c22 -12 26 -59 7 -78 -15 -15 -61 -15 -76 0 -17 17 -15 54 4 72 18 19 38 20 65 6z m-2401 -41 c0 -19 -68 -119 -81 -119 -11 0 -20 31 -12 43 3 7 22 33 40 60 35 47 53 53 53 16z m378 -38 c-12 -22 -26 -41 -30 -41 -15 0 -8 33 13 67 32 51 47 27 17 -26z m-168 28 c12 -21 7 -49 -8 -49 -5 0 -7 12 -4 26 4 20 1 25 -9 22 -8 -2 -15 -17 -17 -32 -4 -31 -26 -44 -46 -27 -23 19 -26 49 -5 54 15 4 17 2 9 -13 -5 -9 -7 -20 -3 -23 11 -11 23 4 23 28 0 37 43 48 60 14z m2000 -8 c0 -14 -10 -18 -64 -26 -39 -6 -48 -5 -44 6 4 12 35 21 96 28 6 0 12 -3 12 -8z m430 -5 c0 -20 -19 -33 -70 -46 -25 -6 -53 -13 -62 -16 -13 -4 -18 0 -18 15 0 24 12 33 70 47 63 16 80 16 80 0z m-2229 -70 c-21 -46 -41 -60 -41 -31 0 9 9 34 21 57 14 28 24 37 31 30 8 -8 4 -24 -11 -56z m1949 17 c21 -4 26 -10 23 -23 -5 -18 -6 -18 -36 1 -44 26 -60 25 -55 -6 3 -14 1 -25 -4 -25 -17 0 -19 29 -3 59 14 29 17 30 32 16 8 -9 28 -18 43 -22z m-2330 -6 c0 -12 -16 -46 -36 -76 -27 -40 -38 -50 -45 -40 -14 23 -11 36 26 94 36 56 55 63 55 22z m2139 -3 c-11 -11 -30 -14 -65 -12 -46 3 -47 4 -24 15 14 7 43 12 65 12 36 1 38 0 24 -15z m-1921 -6 c21 -21 13 -47 -20 -64 -18 -9 -36 -21 -39 -26 -4 -6 -18 11 -33 37 -14 26 -20 45 -13 42 7 -3 21 1 32 9 23 17 57 18 73 2z m212 -10 c0 -24 -33 -97 -41 -92 -13 8 -11 27 6 68 15 35 35 49 35 24z m2135 -27 c-13 -15 -82 -32 -132 -32 -12 -1 -14 15 -4 30 10 16 144 41 150 28 1 -4 -4 -16 -14 -26z m-2530 -24 c4 -16 -4 -42 -27 -80 -35 -62 -43 -68 -53 -38 -7 22 49 141 65 141 5 0 12 -10 15 -23z m2075 14 c0 -5 -9 -12 -20 -16 -25 -8 -91 5 -84 16 7 12 104 12 104 0z m-1646 -10 c3 -5 -2 -30 -10 -56 -22 -63 -43 -46 -24 19 12 44 23 56 34 37z m1816 -9 c18 -14 21 -25 16 -45 -9 -39 -41 -53 -72 -32 -34 22 -39 41 -20 70 19 30 45 32 76 7z m-2000 -36 c27 -51 -26 -104 -73 -73 -29 19 -40 52 -21 67 10 9 13 6 11 -17 -2 -22 3 -29 21 -31 28 -4 52 14 52 39 0 21 -30 27 -30 7 0 -7 -7 -4 -16 7 -13 18 -13 20 3 26 25 9 38 2 53 -25z m1788 2 c-6 -17 -32 -21 -74 -13 -49 9 -32 25 27 25 36 0 49 -4 47 -12z m472 -2 c0 -23 -23 -33 -92 -41 -69 -7 -78 -2 -55 28 11 14 26 18 125 25 13 1 22 -4 22 -12z m-2036 -4 c6 -10 -16 -102 -25 -102 -14 0 -17 29 -7 69 10 39 21 51 32 33z m-426 -35 c4 -18 -48 -137 -60 -137 -20 0 -17 51 6 104 25 56 47 70 54 33z m1949 -11 c-3 -7 -23 -10 -52 -8 -52 2 -66 9 -48 20 19 12 105 2 100 -12z m-1485 -37 c-3 -58 -10 -75 -23 -62 -14 14 0 115 15 110 6 -3 10 -22 8 -48z m1676 29 c19 -19 14 -63 -8 -83 -16 -14 -23 -16 -32 -7 -9 9 -8 12 5 12 27 0 39 35 18 54 -9 9 -25 16 -34 16 -22 0 -32 -19 -13 -26 12 -5 13 -10 4 -24 -12 -18 -12 -18 -26 1 -30 43 48 95 86 57z m-1888 -28 c-6 -4 -8 -14 -4 -23 7 -19 21 -22 26 -6 2 7 8 6 16 -4 11 -12 6 -16 -34 -22 -26 -3 -53 -9 -61 -12 -10 -4 -7 10 12 46 22 44 28 51 41 40 10 -8 11 -14 4 -19z m2170 11 c0 -27 -34 -41 -96 -41 -57 0 -65 2 -62 18 2 11 16 19 38 23 56 10 120 10 120 0z m-1910 -67 c0 -51 -14 -72 -26 -39 -9 22 6 106 17 100 5 -4 9 -31 9 -61z m1393 49 c5 -3 4 -10 -1 -15 -13 -13 -115 10 -106 24 6 9 89 2 107 -9z m-1863 -8 c10 -12 7 -28 -16 -86 -25 -63 -29 -69 -41 -53 -17 24 -17 29 9 96 24 62 29 66 48 43z m1776 -26 c44 -11 56 -23 32 -31 -20 -7 -109 22 -103 33 8 12 17 11 71 -2z m-1256 -55 c0 -40 -3 -55 -12 -52 -17 6 -21 32 -13 74 10 53 25 40 25 -22z m1810 21 c0 -26 -38 -37 -101 -30 -32 4 -59 10 -59 14 0 21 30 31 92 31 53 0 68 -3 68 -15z m-2280 -9 c17 -22 -28 -160 -47 -144 -17 14 -16 40 4 105 18 56 23 62 43 39z m521 -46 c2 -25 -1 -46 -7 -48 -5 -1 -10 24 -12 55 -2 38 0 55 7 48 5 -5 11 -30 12 -55z m1174 40 c25 -9 27 -13 14 -20 -18 -11 -99 16 -99 33 0 11 39 5 85 -13z m-1452 -32 c15 -23 1 -48 -28 -48 -14 0 -25 2 -25 4 0 2 -3 11 -6 19 -6 16 23 50 39 44 6 -2 15 -10 20 -19z m1380 2 c20 -8 37 -17 37 -21 0 -18 -21 -17 -65 2 -35 16 -44 23 -34 30 8 5 16 8 19 6 3 -1 22 -9 43 -17z m-1045 -50 c3 -47 1 -52 -12 -40 -20 16 -23 104 -3 98 7 -3 13 -27 15 -58z m1022 -14 c-7 -7 -26 -2 -57 13 -33 16 -43 25 -33 31 18 11 104 -30 90 -44z m628 39 c3 -3 -1 -13 -10 -21 -13 -13 -29 -15 -87 -9 -67 7 -70 8 -60 27 10 19 18 20 81 15 39 -3 73 -9 76 -12z m-2174 -40 c-1 -22 -7 -59 -13 -83 -10 -36 -15 -41 -27 -32 -17 15 -18 42 -2 110 8 37 16 50 27 48 12 -3 16 -15 15 -43z m576 19 c6 -14 10 -39 10 -57 0 -27 -2 -29 -14 -17 -16 18 -28 100 -15 100 5 0 14 -12 19 -26z m1255 -9 c0 -25 -4 -30 -24 -30 -32 0 -49 28 -31 50 7 9 23 15 34 13 16 -2 21 -10 21 -33z m-372 -12 c31 -20 37 -28 25 -31 -21 -4 -99 38 -92 50 8 13 22 9 67 -19z m-1173 -49 c-19 -35 -34 -39 -62 -18 l-23 17 30 32 c29 30 31 30 49 13 18 -16 18 -20 6 -44z m356 13 c10 -39 10 -47 -1 -47 -18 0 -21 7 -30 59 -10 61 15 51 31 -12z m772 2 c26 -16 29 -29 6 -29 -13 0 -42 16 -83 46 -1 2 0 8 4 14 5 8 13 7 28 -3 12 -8 32 -20 45 -28z m-712 -20 c8 -24 14 -45 14 -46 0 -2 -7 -3 -15 -3 -13 0 -35 55 -35 88 0 29 24 4 36 -39z m1367 36 c49 -8 56 -15 33 -34 -16 -14 -133 -5 -142 11 -10 15 18 40 40 34 12 -2 42 -8 69 -11z m-2013 -10 c11 -13 11 -29 1 -85 -13 -73 -23 -84 -41 -50 -8 14 -7 39 1 85 11 68 18 75 39 50z m1680 -5 c0 -13 7 -20 20 -20 20 0 27 -14 13 -23 -14 -8 -53 12 -53 28 0 8 -4 15 -10 15 -16 0 -12 -14 11 -39 18 -19 19 -25 8 -32 -9 -5 -15 -4 -18 4 -5 18 -33 47 -43 47 -5 0 -1 -15 10 -33 15 -23 18 -37 11 -50 -14 -25 -36 -21 -64 11 -13 15 -25 22 -25 15 0 -7 -7 -10 -15 -7 -8 4 -15 1 -15 -4 0 -6 12 -12 28 -14 19 -2 27 -9 27 -22 0 -27 -31 -44 -47 -27 -11 10 -10 12 6 9 10 -1 21 3 24 11 3 10 0 12 -11 8 -8 -3 -23 0 -33 8 -15 11 -16 15 -5 29 7 9 18 16 24 16 6 0 19 7 29 17 13 12 18 13 18 3 0 -15 29 -50 42 -50 15 0 8 30 -12 50 -19 19 -19 19 13 44 39 31 67 34 67 6z m-980 -15 c5 -14 13 -38 16 -52 12 -45 -19 -21 -38 30 -15 41 -16 47 -3 47 9 0 20 -11 25 -25z m588 -4 c37 -32 27 -54 -11 -27 -39 27 -57 43 -57 50 0 15 38 3 68 -23z m-1015 13 c4 -4 -3 -20 -14 -35 -27 -38 -15 -58 17 -28 13 12 21 26 18 30 -8 14 4 11 31 -7 16 -10 25 -26 25 -43 0 -20 3 -22 9 -11 6 8 7 18 5 22 -3 4 2 5 10 2 12 -5 10 -13 -12 -47 l-27 -41 -5 45 -6 44 -14 -27 c-14 -29 -25 -35 -35 -18 -3 6 -2 10 3 10 13 0 45 50 38 57 -3 4 -15 -6 -27 -20 -23 -31 -41 -34 -59 -12 -11 13 -9 22 6 50 19 35 25 40 37 29z m502 -56 c13 -33 13 -38 1 -38 -16 0 -57 79 -48 93 7 13 29 -13 47 -55z m442 30 c35 -34 41 -48 21 -48 -14 0 -78 59 -78 72 0 17 26 7 57 -24z m-379 -33 c17 -35 19 -45 8 -45 -8 0 -26 20 -39 45 -23 40 -24 45 -8 45 10 0 25 -17 39 -45z m59 -1 c25 -43 28 -54 13 -54 -11 0 -60 74 -60 91 0 21 25 2 47 -37z m192 9 c18 -21 26 -40 20 -42 -14 -4 -80 59 -73 71 10 15 22 8 53 -29z m71 2 c29 -30 31 -35 14 -35 -11 0 -35 16 -54 35 -29 30 -31 35 -14 35 11 0 35 -16 54 -35z m-196 -16 c28 -42 29 -54 5 -44 -13 5 -59 68 -59 80 0 3 6 5 14 5 7 0 26 -18 40 -41z m66 1 c27 -34 29 -40 13 -40 -10 0 -31 18 -46 40 -39 55 -10 54 33 0z m905 24 c36 -9 65 -20 65 -25 0 -19 -37 -28 -81 -18 -100 21 -93 18 -74 39 22 24 12 23 90 4z m-1872 -14 c11 -16 12 -33 4 -82 -5 -35 -11 -65 -13 -67 -3 -3 -11 2 -20 11 -13 12 -14 29 -8 87 7 74 14 84 37 51z m1807 -47 c61 -18 76 -37 41 -48 -17 -5 -127 19 -140 31 -6 5 20 34 31 34 5 0 36 -8 68 -17z m-1742 -5 c15 -15 16 -134 1 -144 -6 -3 -18 0 -26 9 -12 11 -13 28 -8 81 7 68 12 75 33 54z m299 -38 c-1 -27 -3 -50 -4 -50 -14 -1 -30 15 -26 26 3 9 -1 14 -12 14 -9 0 -13 -4 -10 -10 4 -6 -1 -7 -11 -3 -15 5 -11 12 22 40 21 18 40 33 41 33 2 0 2 -22 0 -50z m47 -11 c0 -16 -6 -35 -12 -41 -9 -9 -12 -1 -12 35 0 33 4 45 13 42 6 -3 12 -19 11 -36z m961 32 c-7 -12 15 -61 27 -61 5 0 12 10 17 22 6 17 9 18 14 5 6 -17 -7 -31 -38 -41 -16 -4 -23 2 -37 34 -11 28 -13 40 -5 44 20 8 28 6 22 -3z m-923 -47 l-2 -29 16 23 c9 12 21 22 27 22 6 0 -4 -16 -23 -35 -19 -19 -36 -35 -39 -35 -5 0 -6 14 -2 78 1 8 7 12 14 9 7 -2 11 -16 9 -33z m882 27 c4 -5 1 -22 -4 -37 -13 -34 -3 -45 17 -19 13 18 14 18 11 2 -1 -11 -17 -25 -35 -32 -27 -11 -31 -11 -27 0 3 7 -1 27 -10 43 -14 28 -14 30 7 40 28 14 35 14 41 3z m409 -15 c57 -20 72 -38 40 -50 -17 -7 -143 31 -143 43 0 12 24 32 35 29 5 -2 36 -12 68 -22z m-1605 2 c13 -13 17 -148 4 -148 -22 0 -32 29 -32 92 0 68 5 79 28 56z m391 -70 c1 -40 19 -35 27 7 7 41 31 47 40 10 3 -14 10 -22 16 -19 5 3 7 12 4 20 -3 8 1 14 9 14 18 0 18 -5 -4 -55 l-18 -40 -13 39 c-10 33 -14 36 -22 22 -5 -10 -7 -24 -4 -33 5 -11 2 -13 -11 -8 -10 4 -26 10 -35 12 -10 3 -16 9 -13 13 3 5 0 12 -6 16 -6 3 -15 1 -19 -6 -4 -7 -13 -9 -19 -5 -9 5 -7 11 6 20 10 7 21 11 26 8 4 -2 7 -1 6 4 -1 4 2 17 6 27 8 19 9 19 16 0 4 -10 8 -31 8 -46z m1139 16 c34 -15 62 -31 62 -35 0 -20 -46 -19 -101 2 -56 23 -73 42 -46 52 19 8 19 8 85 -19z m-1448 -3 c15 -29 13 -144 -2 -139 -35 12 -56 158 -23 158 8 0 19 -9 25 -19z m940 -3 c0 -13 3 -34 7 -48 l6 -25 -30 28 c-36 34 -45 34 -33 1 13 -33 14 -31 -19 -36 -25 -4 -31 0 -37 21 -6 24 -7 25 -14 6 -4 -11 -6 -23 -3 -27 2 -5 -3 -8 -11 -8 -13 0 -13 5 1 46 l16 46 20 -36 c32 -55 50 -42 27 18 -11 31 -1 34 35 10 26 -17 34 -7 13 14 -9 9 -8 12 5 12 11 0 17 -8 17 -22z m-310 -24 c0 -13 -3 -14 -15 -4 -8 7 -22 10 -30 6 -19 -7 -20 -52 0 -60 9 -3 15 0 15 9 0 8 7 15 16 15 25 0 12 -35 -14 -38 -43 -6 -70 46 -40 76 18 18 68 15 68 -4z m42 -25 c-3 -32 -1 -40 9 -37 9 3 14 19 14 41 0 21 5 37 11 37 6 0 8 -15 5 -42 -4 -31 -11 -44 -25 -46 -24 -5 -33 6 -41 51 -6 32 -5 37 12 37 16 0 18 -6 15 -41z m105 -1 c-2 -39 -5 -43 -29 -46 -20 -2 -28 1 -28 12 0 18 16 21 25 6 4 -6 11 -7 17 -4 6 4 -1 16 -18 29 -31 24 -26 45 11 45 22 0 24 -4 22 -42z m596 7 c94 -50 53 -76 -45 -29 -62 30 -68 37 -40 53 20 12 14 14 85 -24z m-1305 12 c11 -13 35 -138 28 -145 -3 -2 -13 1 -24 7 -13 7 -22 25 -27 53 -3 24 -8 55 -11 71 -6 29 14 38 34 14z m1223 -53 c33 -19 59 -39 59 -44 0 -22 -44 -14 -101 18 -57 32 -61 36 -44 48 24 18 18 19 86 -22z m-1134 -4 c6 -14 14 -46 18 -72 6 -39 4 -48 -8 -48 -21 0 -33 19 -41 65 -4 22 -10 51 -13 63 -5 20 -2 23 13 20 10 -2 24 -14 31 -28z m77 -22 c17 -28 39 -118 31 -126 -12 -12 -39 15 -50 49 -25 70 -28 99 -11 99 9 0 22 -10 30 -22z m982 -14 c54 -37 61 -54 21 -54 -28 0 -130 68 -122 80 12 19 49 9 101 -26z m-83 -33 c52 -39 56 -46 27 -54 -13 -3 -39 9 -76 36 -49 37 -53 43 -38 54 19 14 21 13 87 -36z m-794 -34 c13 -37 21 -70 18 -73 -14 -15 -47 21 -63 68 -9 29 -19 59 -22 66 -3 10 2 13 19 10 20 -2 28 -15 48 -71z m77 3 c36 -76 38 -90 14 -90 -16 0 -28 15 -50 66 -17 36 -30 68 -30 71 0 2 10 3 23 1 15 -2 29 -17 43 -48z m628 9 c52 -46 57 -59 22 -59 -26 0 -119 77 -110 91 11 19 43 8 88 -32z m-88 -21 c53 -50 55 -53 34 -62 -18 -8 -29 -2 -72 41 -45 46 -56 73 -27 73 6 0 35 -24 65 -52z m-450 -3 c35 -65 39 -85 15 -85 -14 0 -29 17 -50 57 -37 68 -38 75 -9 71 14 -2 31 -18 44 -43z m100 -32 c30 -54 33 -63 17 -63 -10 0 -23 4 -29 8 -10 7 -74 108 -74 118 0 3 11 4 25 2 20 -2 34 -18 61 -65z m84 8 c22 -33 40 -62 40 -65 0 -4 -11 -6 -24 -6 -17 0 -33 14 -60 55 -20 31 -34 60 -31 65 14 22 36 7 75 -49z m90 3 c28 -38 39 -59 32 -66 -6 -6 -16 -7 -27 -1 -24 14 -95 105 -89 115 13 21 45 3 84 -48z m89 9 c23 -27 41 -51 41 -55 0 -5 -11 -8 -24 -8 -17 0 -37 15 -65 49 -23 27 -41 52 -41 55 0 3 11 6 24 6 17 0 37 -15 65 -47z"/> <path d="M1373 2732 c-8 -5 -10 -22 -6 -50 5 -40 7 -42 39 -42 25 0 34 4 34 17 0 13 -3 14 -12 5 -17 -17 -38 -15 -38 4 0 11 5 14 16 10 10 -4 14 -2 11 6 -2 7 -10 12 -16 11 -6 -2 -11 6 -11 17 0 21 15 27 25 10 10 -16 25 -12 19 5 -6 16 -41 20 -61 7z"/> <path d="M1506 2724 c-32 -31 -11 -84 32 -84 35 0 52 16 52 50 0 14 -5 31 -12 38 -17 17 -54 15 -72 -4z m57 -14 c8 -31 -3 -61 -22 -58 -17 3 -27 39 -17 64 8 21 33 17 39 -6z"/> <path d="M1260 2710 c-27 -27 -25 -56 5 -76 21 -14 31 -15 50 -6 28 13 36 56 9 45 -8 -3 -13 -11 -10 -18 6 -18 -19 -26 -33 -12 -15 15 -14 64 2 70 6 2 20 0 30 -5 12 -6 17 -5 17 7 0 22 -46 19 -70 -5z"/> <path d="M1620 2711 c0 -10 -3 -33 -6 -50 -5 -26 -3 -31 12 -31 16 0 19 6 16 45 -4 47 10 59 36 33 9 -9 12 -8 12 5 0 13 -9 17 -35 17 -28 0 -35 -4 -35 -19z"/> <path d="M1165 2696 c-22 -7 -34 -14 -27 -17 7 -2 16 -23 19 -46 5 -40 6 -41 36 -32 34 10 54 25 44 35 -3 4 -13 -1 -22 -10 -19 -18 -35 -13 -35 11 0 13 2 14 17 2 15 -12 16 -12 10 4 -4 10 -7 20 -7 23 0 2 -7 1 -15 -2 -10 -4 -15 0 -15 11 0 13 6 16 25 11 19 -5 23 -3 19 9 -4 8 -7 15 -8 14 0 0 -19 -6 -41 -13z"/> <path d="M1762 2697 c-7 -8 -10 -22 -6 -31 3 -9 1 -16 -6 -16 -6 0 -8 6 -4 13 4 6 -5 1 -20 -13 -18 -16 -23 -26 -15 -29 7 -2 15 1 17 8 2 6 13 11 24 11 13 0 18 -5 15 -14 -5 -12 20 -32 29 -24 1 2 -3 27 -10 57 -10 44 -14 51 -24 38z"/> <path d="M1835 2660 c-24 -26 -13 -68 22 -81 20 -7 30 -6 41 5 8 8 11 19 8 25 -10 16 -26 13 -26 -5 0 -20 -34 -14 -38 7 -1 9 6 27 18 40 l20 24 19 -23 c13 -15 21 -18 24 -10 5 17 -22 37 -49 38 -11 0 -29 -9 -39 -20z"/> <path d="M1058 2663 c-20 -5 -23 -14 -9 -28 5 -6 13 -24 18 -42 l8 -32 37 17 c30 13 36 20 28 32 -8 13 -10 12 -10 -2 0 -31 -35 -21 -47 13 -7 18 -10 36 -7 40 3 5 4 8 2 8 -2 -1 -11 -3 -20 -6z"/> <path d="M1947 2621 c-3 -16 -13 -35 -21 -44 -14 -13 -14 -16 1 -21 9 -4 16 -5 17 -4 1 2 10 21 19 42 14 30 21 36 30 27 9 -10 8 -15 -5 -25 -28 -21 -22 -54 14 -76 l33 -20 14 28 c7 15 20 35 29 45 8 9 13 17 9 17 -3 0 -12 3 -21 6 -10 4 -16 1 -16 -7 0 -8 -9 -27 -19 -43 l-20 -30 -12 28 c-11 24 -11 29 4 37 26 15 21 37 -13 54 -38 19 -37 20 -43 -14z"/> <path d="M963 2622 c-10 -6 -8 -17 7 -47 11 -21 17 -42 14 -47 -5 -8 64 17 73 26 2 2 0 11 -3 21 -7 17 -8 16 -15 -3 -5 -12 -13 -22 -18 -22 -14 0 -43 58 -36 70 7 12 -5 13 -22 2z"/> <path d="M881 2574 c-25 -18 -27 -56 -5 -78 44 -44 111 17 72 66 -20 24 -44 28 -67 12z m43 -26 c20 -28 20 -44 1 -52 -18 -7 -50 37 -41 59 8 21 22 19 40 -7z"/> <path d="M2092 2544 c-28 -20 -28 -58 0 -78 26 -18 48 -21 48 -6 0 6 -9 10 -20 10 -26 0 -35 22 -20 49 14 28 48 27 59 -1 6 -16 10 -18 16 -8 5 9 0 20 -15 32 -27 22 -39 23 -68 2z"/> <path d="M797 2520 c-15 -12 -27 -31 -27 -44 0 -25 28 -56 52 -56 16 0 54 37 46 45 -3 3 -11 -1 -18 -10 -17 -21 -37 -19 -50 6 -15 26 -7 47 19 51 14 2 18 7 12 16 -6 10 -14 8 -34 -8z"/> <path d="M2183 2479 c-13 -15 -23 -33 -23 -41 0 -19 20 -38 40 -38 19 0 75 58 65 68 -3 4 -17 -8 -31 -26 -26 -33 -54 -43 -54 -18 0 7 11 25 25 40 29 31 29 32 13 38 -7 3 -23 -7 -35 -23z"/> <path d="M671 2419 l-24 -20 32 -33 c17 -18 28 -35 25 -39 -4 -4 -4 -7 0 -7 4 0 21 13 37 28 29 27 29 29 13 43 -12 10 -15 10 -10 1 4 -7 2 -20 -5 -28 -10 -13 -15 -12 -36 7 -28 28 -30 49 -2 49 11 0 17 5 14 10 -9 14 -17 12 -44 -11z"/> <path d="M2254 2404 l-31 -33 28 -27 c16 -15 32 -23 40 -19 8 5 3 12 -16 19 l-28 12 36 31 c26 22 32 34 24 42 -15 15 -17 14 -53 -25z"/> <path d="M2337 2384 c-10 -11 -8 -26 2 -19 5 3 12 1 15 -3 6 -10 -31 -47 -52 -53 -10 -3 -8 -10 7 -23 17 -15 21 -16 21 -4 0 8 11 25 24 37 22 21 25 21 34 6 5 -10 12 -13 15 -8 8 12 -57 76 -66 67z"/> <path d="M597 2345 c-17 -20 -23 -36 -17 -40 5 -3 10 1 10 9 0 25 16 19 45 -16 24 -29 27 -30 43 -15 14 15 14 17 1 17 -15 0 -59 40 -59 53 0 4 7 7 16 7 8 0 12 5 9 10 -10 15 -18 11 -48 -25z"/> <path d="M2386 2271 c-48 -50 -9 -102 46 -61 15 11 32 20 39 20 8 0 8 4 -1 15 -11 13 -15 11 -32 -10 -11 -14 -28 -25 -39 -25 -31 0 -20 30 18 50 24 13 29 20 21 28 -17 17 -21 15 -52 -17z"/> <path d="M540 2276 c0 -3 10 -26 22 -51 20 -42 38 -58 38 -35 0 6 -5 10 -11 10 -6 0 -8 7 -5 16 3 8 2 12 -4 9 -6 -3 -10 -1 -10 4 0 13 2 13 33 2 19 -8 27 -6 31 4 4 10 -7 18 -37 26 -23 6 -45 13 -49 16 -5 2 -8 2 -8 -1z"/> <path d="M481 2194 c-12 -19 -18 -41 -14 -47 5 -8 9 -4 13 11 l5 22 36 -24 c33 -22 49 -25 49 -7 0 4 -16 15 -35 25 -37 20 -46 36 -19 36 8 0 12 5 9 10 -11 18 -23 11 -44 -26z"/> <path d="M2477 2207 c-3 -8 -19 -21 -36 -28 -17 -8 -31 -17 -31 -20 0 -14 14 -18 31 -9 16 9 17 6 12 -27 -4 -26 -3 -34 5 -29 7 4 12 13 12 21 0 7 10 15 23 17 28 4 33 36 9 67 -15 19 -20 20 -25 8z"/> <path d="M435 2120 c-15 -16 -16 -22 -5 -36 13 -15 25 -15 63 1 12 5 17 2 17 -9 0 -9 -8 -16 -21 -16 -11 0 -17 -4 -14 -10 11 -18 31 -11 46 16 12 23 12 27 -6 40 -16 12 -22 12 -41 -1 -29 -19 -34 -19 -34 -1 0 8 8 16 18 18 11 2 13 6 6 10 -6 4 -19 -1 -29 -12z"/> <path d="M2537 2116 c-3 -8 -21 -20 -40 -27 l-35 -12 16 -34 c9 -18 22 -33 29 -33 18 0 16 17 -2 24 -23 9 -18 24 15 41 38 20 38 20 42 -12 3 -22 6 -24 12 -12 4 10 0 29 -12 48 -14 23 -21 28 -25 17z"/> <path d="M281 1387 c-15 -19 -7 -24 34 -19 21 3 35 10 35 18 0 18 -54 19 -69 1z"/> <path d="M1386 2415 c16 -11 27 -41 45 -125 l23 -110 32 0 31 0 24 109 c20 95 26 111 47 121 14 6 22 13 20 16 -3 2 -17 -1 -31 -7 -22 -10 -29 -25 -47 -105 -15 -64 -26 -94 -36 -94 -8 0 -17 0 -21 0 -4 0 -8 7 -9 16 -2 9 -9 38 -17 63 -8 25 -18 61 -22 79 -4 18 -15 37 -25 42 -28 15 -37 12 -14 -5z"/> <path d="M1830 376 c0 -3 5 -17 10 -32 8 -19 14 -24 21 -17 8 8 7 17 0 32 -10 18 -31 30 -31 17z"/> <path d="M1973 1619 c-18 -5 -33 -13 -33 -18 0 -5 -9 -11 -20 -14 -11 -3 -20 -10 -20 -17 0 -6 4 -9 9 -6 5 4 11 2 13 -3 1 -6 33 -12 70 -15 38 -3 73 -8 79 -12 8 -4 9 -3 5 4 -8 14 -83 35 -95 27 -5 -3 -20 -1 -33 4 -21 8 -20 10 25 30 65 30 65 39 0 20z"/> <path d="M1801 1606 c16 -15 79 -44 79 -36 0 11 -52 40 -71 40 -7 0 -10 -2 -8 -4z"/> <path d="M1740 1554 l-35 -12 50 3 c28 2 62 4 78 4 15 1 27 5 27 10 0 13 -79 10 -120 -5z"/> <path d="M1883 1534 c-3 -8 -3 -18 1 -21 3 -4 6 1 6 10 0 15 3 15 23 5 12 -7 30 -19 40 -27 9 -8 17 -10 17 -6 0 5 10 -1 23 -12 41 -37 52 -37 17 1 -19 20 -40 34 -46 32 -7 -3 -18 1 -24 9 -17 20 -50 26 -57 9z"/> <path d="M1820 1527 c-35 -16 -100 -67 -100 -78 0 -6 15 1 33 15 19 14 36 24 39 21 3 -3 13 4 23 15 10 11 24 20 31 20 7 0 16 5 19 10 8 13 -13 12 -45 -3z"/> <path d="M2213 1515 c-10 -7 -55 -32 -101 -55 -82 -43 -83 -44 -64 -62 19 -19 20 -19 99 31 44 28 84 51 90 51 5 0 42 -23 83 -51 72 -49 74 -50 92 -31 19 19 18 20 -81 74 -85 47 -103 54 -118 43z"/> <path d="M1852 1348 c-12 -83 -20 -154 -17 -156 3 -3 13 2 23 11 24 22 34 21 67 -5 l28 -22 -7 45 c-4 24 -9 51 -11 59 -2 8 -7 36 -11 63 -3 26 -11 47 -16 47 -5 0 -6 5 -3 10 10 16 -6 100 -19 100 -8 0 -20 -53 -34 -152z m39 54 c-11 -4 -11 -6 0 -12 7 -5 14 -17 15 -27 2 -10 6 -33 9 -51 4 -23 3 -32 -5 -27 -5 3 -8 11 -5 16 4 5 -3 9 -14 9 -12 0 -20 -5 -18 -11 1 -6 -4 -14 -11 -16 -11 -4 -12 -1 -4 13 5 11 8 29 6 42 -2 12 0 22 4 22 5 0 8 15 7 33 -2 49 7 65 19 37 8 -18 7 -25 -3 -28z m18 -126 c9 -10 8 -16 -4 -26 -21 -17 -51 6 -34 26 6 8 15 14 19 14 4 0 13 -6 19 -14z"/> <path d="M944 1368 c15 -24 36 -23 36 2 0 15 -6 19 -24 18 -20 -2 -22 -5 -12 -20z"/> <path d="M2198 1310 l-3 -80 33 0 32 0 0 80 0 80 -29 0 -29 0 -4 -80z m32 -5 c0 -19 -4 -35 -10 -35 -5 0 -10 16 -10 35 0 19 5 35 10 35 6 0 10 -16 10 -35z"/> <path d="M2108 1345 c-4 -34 -3 -35 29 -35 31 0 33 2 33 35 0 32 -3 35 -29 35 -25 0 -29 -4 -33 -35z"/> <path d="M2290 1345 c0 -33 2 -35 33 -35 32 0 33 1 29 35 -4 31 -8 35 -33 35 -26 0 -29 -3 -29 -35z"/> <path d="M2077 1363 c-4 -3 -7 -39 -7 -80 l0 -73 73 1 72 0 -40 15 c-22 8 -45 12 -52 10 -7 -3 -13 -1 -13 4 0 6 -6 10 -12 10 -9 0 -13 18 -12 60 0 33 0 60 -1 60 -1 0 -5 -3 -8 -7z"/> <path d="M1441 1341 c-11 -7 -12 -14 0 -39 l13 -30 13 26 c11 21 11 28 1 38 -8 8 -18 10 -27 5z"/> <path d="M1521 1336 c-9 -10 -8 -16 4 -26 9 -7 14 -19 11 -27 -3 -7 -1 -13 4 -13 6 0 10 9 10 19 0 11 5 21 12 23 16 6 2 38 -15 38 -8 0 -20 -6 -26 -14z"/> <path d="M2310 1239 c-8 -4 -24 -11 -35 -15 -19 -7 -19 -8 4 -12 31 -5 91 7 91 18 0 5 -7 7 -16 3 -9 -3 -19 -1 -23 4 -3 6 -13 7 -21 2z"/> <path d="M1351 1217 c-8 -10 -7 -21 2 -40 14 -32 27 -35 27 -8 0 11 5 23 10 26 8 5 7 11 -1 21 -14 17 -23 18 -38 1z"/> <path d="M1441 1211 c-11 -7 -12 -14 0 -39 l13 -30 13 26 c11 21 11 28 1 38 -8 8 -18 10 -27 5z"/> <path d="M1521 1206 c-9 -10 -8 -16 4 -26 9 -7 14 -19 11 -27 -3 -7 -1 -13 4 -13 6 0 10 9 10 20 0 11 5 20 10 20 16 0 11 27 -6 34 -21 8 -20 8 -33 -8z"/> <path d="M1606 1205 c-3 -9 1 -18 10 -22 8 -3 13 -12 10 -19 -3 -7 -1 -16 4 -19 6 -4 10 2 10 12 0 11 5 24 11 30 6 6 8 16 5 22 -10 16 -43 13 -50 -4z"/> <path d="M1776 1191 c-9 -15 47 -82 142 -172 88 -81 92 -87 92 -127 0 -45 23 -60 35 -22 9 28 34 25 45 -6 13 -33 34 -26 38 12 5 52 23 81 69 114 60 44 168 179 154 193 -8 8 -16 4 -28 -13 -31 -45 -116 -130 -129 -130 -21 0 -17 19 11 44 24 22 33 46 18 46 -4 0 -22 -15 -41 -32 -32 -32 -34 -32 -48 -14 -8 11 -14 37 -14 58 l0 38 -60 0 c-60 0 -60 0 -60 -29 0 -35 19 -53 21 -19 1 13 1 26 0 31 -2 10 27 9 34 -3 3 -5 12 -7 19 -4 15 6 25 -6 31 -36 3 -18 -1 -20 -49 -20 -35 0 -58 -5 -66 -15 -11 -13 -17 -11 -47 16 -41 35 -58 31 -23 -6 13 -14 20 -28 16 -32 -5 -5 -38 25 -75 65 -69 73 -76 79 -85 63z m364 -131 c0 -5 -6 -13 -14 -17 -7 -4 -21 -23 -30 -40 -15 -30 -46 -46 -46 -23 0 5 -13 25 -30 43 -16 19 -30 37 -30 41 0 3 34 6 75 6 41 0 75 -4 75 -10z m-151 -37 c12 -14 19 -28 17 -30 -7 -8 -66 40 -60 49 9 14 22 9 43 -19z m164 -37 c-17 -14 -34 -37 -37 -50 -5 -21 -11 -25 -42 -23 -27 2 -40 9 -50 27 -20 37 -17 42 11 24 21 -14 31 -15 51 -6 13 7 27 20 31 29 3 10 13 26 21 36 14 15 17 16 30 3 13 -13 11 -18 -15 -40z"/> <path d="M1265 1084 c-16 -17 -16 -18 0 -30 9 -7 14 -17 10 -23 -3 -6 -3 -11 2 -11 4 0 14 12 21 27 10 22 10 30 -2 41 -11 11 -16 11 -31 -4z"/> <path d="M1697 1076 c-3 -8 0 -20 8 -26 8 -6 11 -18 8 -26 -3 -8 0 -14 6 -14 6 0 11 8 11 18 0 10 5 23 11 29 6 6 8 16 5 22 -10 16 -43 14 -49 -3z"/> <path d="M1351 1066 c-9 -10 -8 -16 4 -26 9 -7 14 -19 11 -27 -3 -7 -1 -13 4 -13 6 0 10 9 10 19 0 11 5 23 10 26 8 5 7 11 -1 21 -14 18 -23 18 -38 0z"/> <path d="M1621 1071 c-11 -7 -12 -14 0 -39 l13 -30 13 26 c11 21 11 28 1 38 -8 8 -18 10 -27 5z"/> <path d="M1441 1057 c-8 -10 -7 -21 2 -40 13 -29 33 -38 23 -10 -4 9 -1 20 5 24 13 8 5 39 -9 39 -5 0 -15 -6 -21 -13z"/> <path d="M1523 1054 c-3 -9 -1 -19 4 -23 6 -3 13 -15 16 -26 4 -19 5 -19 6 2 0 12 6 23 13 25 16 6 2 38 -17 38 -9 0 -18 -7 -22 -16z"/> <path d="M1477 823 c-13 -12 -7 -25 8 -20 8 4 17 2 20 -3 6 -10 -14 -15 -47 -12 -10 1 -18 -5 -18 -13 0 -21 -19 -19 -59 6 -18 11 -35 18 -37 16 -9 -8 22 -57 34 -52 6 2 12 -3 12 -11 0 -10 -6 -14 -15 -10 -9 3 -19 -3 -26 -15 -16 -30 -6 -33 40 -9 39 19 41 19 41 2 0 -15 6 -17 35 -14 21 3 35 0 35 -7 0 -14 24 -14 48 -1 9 5 34 16 55 24 21 9 37 22 37 31 0 18 -57 55 -86 55 -11 0 -29 9 -39 20 -19 21 -28 24 -38 13z m125 -73 c-2 -8 3 -10 13 -7 19 8 19 0 1 -19 -19 -19 -27 -18 -19 3 4 10 2 14 -4 10 -6 -4 -14 -1 -16 5 -3 8 -6 6 -6 -4 -2 -29 -37 -41 -79 -28 -71 22 -69 20 -43 41 21 17 35 19 90 15 45 -3 65 -8 63 -16z"/> <path d="M1052 804 c-26 -18 -31 -84 -7 -104 22 -18 139 -25 175 -10 51 21 54 96 5 118 -38 18 -146 15 -173 -4z m176 -16 c7 -7 12 -24 12 -38 0 -41 -17 -50 -100 -50 -83 0 -100 9 -100 50 0 41 17 50 100 50 46 0 81 -5 88 -12z"/> <path d="M1752 804 c-16 -11 -22 -25 -22 -54 0 -54 25 -70 113 -70 59 0 71 3 92 25 14 13 25 34 25 45 0 11 -11 32 -25 45 -21 22 -33 25 -92 25 -46 0 -76 -5 -91 -16z m176 -16 c7 -7 12 -24 12 -38 0 -41 -17 -50 -100 -50 -83 0 -100 9 -100 50 0 41 17 50 100 50 46 0 81 -5 88 -12z"/> <path d="M1416 642 c-7 -12 6 -62 15 -62 5 0 7 12 4 28 l-5 27 12 -27 c17 -40 40 -37 36 4 -2 28 -7 33 -30 35 -15 1 -30 -1 -32 -5z"/> <path d="M1497 644 c-4 -4 -7 -20 -7 -36 0 -23 4 -29 18 -26 11 2 17 13 17 32 0 29 -14 43 -28 30z"/> <path d="M1540 615 c0 -24 5 -35 15 -35 10 0 15 11 15 35 0 24 -5 35 -15 35 -10 0 -15 -11 -15 -35z"/> <path d="M1412 1688 c-19 -19 -14 -49 8 -55 11 -3 20 -12 20 -20 0 -13 -3 -13 -15 -3 -9 7 -18 10 -22 6 -11 -10 13 -28 33 -24 16 3 19 13 19 53 0 52 -17 69 -43 43z"/> <path d="M1487 1694 c-14 -14 -8 -64 8 -64 8 0 15 -4 15 -10 0 -5 -7 -7 -15 -4 -10 4 -15 0 -15 -11 0 -11 7 -15 23 -13 19 3 22 9 22 53 0 37 -4 50 -15 53 -9 1 -19 0 -23 -4z"/> <path d="M1550 1675 c0 -16 6 -25 15 -25 9 0 15 -9 15 -22 0 -18 -2 -20 -10 -8 -11 18 -25 7 -17 -15 9 -22 45 -19 52 5 9 28 -4 63 -21 56 -8 -3 -14 -1 -14 4 0 6 7 10 15 10 8 0 15 5 15 10 0 6 -11 10 -25 10 -20 0 -25 -5 -25 -25z"/> <path d="M2652 1742 c-31 -9 -33 -26 -4 -30 23 -4 52 13 52 29 0 10 -14 10 -48 1z"/> <path d="M2583 1093 c-23 -8 -14 -30 18 -43 22 -9 33 -10 41 -2 21 21 -27 56 -59 45z"/> <path d="M420 960 c-19 -14 -22 -22 -14 -30 15 -15 77 15 71 33 -6 19 -30 18 -57 -3z"/> <path d="M2483 894 c-7 -19 21 -44 49 -44 27 0 22 35 -7 48 -33 15 -34 15 -42 -4z"/> </g> </svg> 